<?xml version="1.0" encoding="UTF-8" standalone="no"?>
<!-- Created with Inkscape (http://www.inkscape.org/) -->

<svg
   version="1.1"
   id="svg1"
   width="2049"
   height="3024"
   viewBox="0 0 2049 3024"
   sodipodi:docname="Jupiter_noir.svg"
   inkscape:version="1.4.2 (f4327f4, 2025-05-13)"
   xmlns:inkscape="http://www.inkscape.org/namespaces/inkscape"
   xmlns:sodipodi="http://sodipodi.sourceforge.net/DTD/sodipodi-0.dtd"
   xmlns="http://www.w3.org/2000/svg"
   xmlns:svg="http://www.w3.org/2000/svg">
  <defs
     id="defs1" />
  <sodipodi:namedview
     id="namedview1"
     pagecolor="#ffffff"
     bordercolor="#000000"
     borderopacity="0.25"
     inkscape:showpageshadow="2"
     inkscape:pageopacity="0.0"
     inkscape:pagecheckerboard="0"
     inkscape:deskcolor="#d1d1d1"
     inkscape:zoom="0.13839286"
     inkscape:cx="722.58064"
     inkscape:cy="1325.9355"
     inkscape:window-width="1920"
     inkscape:window-height="1017"
     inkscape:window-x="-8"
     inkscape:window-y="-8"
     inkscape:window-maximized="1"
     inkscape:current-layer="g1" />
  <g
     inkscape:groupmode="layer"
     inkscape:label="Image"
     id="g1">
    <path
       style="fill:#000000"
       d="m 1448,2712.9525 v -310.8481 l -419.25,-0.6524 c -230.58752,-0.3588 -556.38752,-0.9455 -724.00002,-1.3037 L -2.5e-5,2399.4971 v -31.1495 -31.1495 l 15.73733,-14.4488 C 158.56146,2191.6194 231.28661,2122.3073 349.84844,2004.3186 413.56345,1940.9116 476.08018,1877.1718 518.56593,1832.3005 871.35,1459.7077 1041.6201,1191.3102 1097.4573,919.79113 c 7.3581,-35.7803 9.681,-55.3902 11.548,-97.4906 2.2928,-51.6986 0.358,-113.1087 -4.6156,-146.5 -2.0661,-13.8712 -8.4659,-42.455 -13.4694,-60.1594 -23.9602,-84.78 -62.0021,-150.761 -122.92032,-213.1964 -55.38274,-56.7621 -113.16583,-93.5734 -183.34824,-116.8038 -68.16809,-22.5636 -145.81401,-27.6498 -225.65176,-14.7811 -73.51867,11.8501 -145.56946,40.2999 -204.5,80.7484 -74.58288,51.1919 -134.73101,119.1848 -177.86711,201.0653 -14.96565,28.4076 -22.77,45.8173 -38.13933,85.0801 -8.37126,21.3854 -9.42024,23.5172 -11.89825,24.1799 -1.49468,0.3997 -14.2005,0.8708 -28.235156,1.0469 l -25.517552,0.3201 -2.041331,-2.5 c -1.810084,-2.2167 -1.981308,-3.4629 -1.511475,-11 0.578229,-9.276 7.372486,-47.4535 13.792251,-77.5 C 122.72294,386.76933 202.82281,241.93243 319.50846,144.79353 415.18338,65.145728 535.80456,15.902328 665.99998,3.3390283 c 107.55718,-10.3787 231.38524,5.3431 328.5,41.7079997 66.15522,24.772 131.36422,62.327002 178.50002,102.801202 42.5039,36.4969 92.8809,88.8951 119.7888,124.5947 30.8134,40.8811 67.5358,111.2225 84.2383,161.3576 21.0709,63.2476 26.9692,103.6153 26.9579,184.5 -0.011,81.5498 -4.8096,123.2943 -21.9148,190.6625 -43.4244,171.0242 -156.1084,372.93747 -329.3102,590.07547 -57.2559,71.78 -105.2351,126.6367 -219.72864,251.2252 -164.4178,178.9147 -309.46525,332.2189 -418.78138,442.6203 -24.3375,24.5792 -44.25,44.9655 -44.25,45.3029 0,0.3375 242.55,0.6136 539,0.6136 H 1448 v -349.3114 -349.3113 l 112.1261,-117.9387 c 61.6694,-64.8662 125.6819,-132.2129 142.25,-149.6592 l 30.1239,-31.7205 0.6052,126.2205 c 0.3329,69.4213 0.6704,209.7334 0.75,311.8045 0.08,102.0711 0.4444,274.0836 0.8106,382.25 l 0.6658,196.6661 H 1892.1658 2049 v 121 121 h -157 -157 v 312 312 H 1591.5 1448 Z"
       id="path1" />
  </g>
</svg>
