<?xml version="1.0" encoding="UTF-8" standalone="no"?>
<svg
   width="1000"
   height="1000"
   viewBox="0 0 1000 1000"
   version="1.1"
   id="svg2"
   sodipodi:docname="Jupiter.svg"
   inkscape:version="1.4.2 (f4327f4, 2025-05-13)"
   xmlns:inkscape="http://www.inkscape.org/namespaces/inkscape"
   xmlns:sodipodi="http://sodipodi.sourceforge.net/DTD/sodipodi-0.dtd"
   xmlns="http://www.w3.org/2000/svg"
   xmlns:svg="http://www.w3.org/2000/svg">
  <sodipodi:namedview
     id="namedview2"
     pagecolor="#ffffff"
     bordercolor="#000000"
     borderopacity="0.25"
     inkscape:showpageshadow="2"
     inkscape:pageopacity="0.0"
     inkscape:pagecheckerboard="0"
     inkscape:deskcolor="#d1d1d1"
     inkscape:zoom="0.62"
     inkscape:cx="614.51613"
     inkscape:cy="554.03226"
     inkscape:window-width="1920"
     inkscape:window-height="1017"
     inkscape:window-x="-8"
     inkscape:window-y="-8"
     inkscape:window-maximized="1"
     inkscape:current-layer="svg2" />
  <!-- Couleurs -->
  <defs
     id="defs1">
    <rect
       x="620"
       y="312"
       width="302"
       height="306"
       id="rect8" />
    <rect
       x="680.76923"
       y="311.53845"
       width="256.41025"
       height="296.15384"
       id="rect7" />
    <!-- Masque : cercle plein (blanc) moins l’ellipse (noir) = trou transparent -->
    <mask
       id="sunRingMask">
      <rect
         x="0"
         y="0"
         width="512"
         height="512"
         fill="#000000"
         id="rect1" />
      <!-- disque principal (zone visible) -->
      <circle
         cx="256"
         cy="256"
         r="220"
         fill="#ffffff"
         id="circle1" />
      <!-- forme oblongue intérieure (trou) -->
      <ellipse
         cx="256"
         cy="256"
         rx="145"
         ry="200"
         transform="rotate(-25,256,256)"
         fill="#000000"
         id="ellipse1" />
    </mask>
  </defs>
  <!-- Anneau du soleil (orange), le masque creuse l’ellipse oblique -->
  <!-- Pastille centrale -->
  <g
     id="g2"
     transform="matrix(1.6327641,0,0,1.6327641,-397.73149,-397.72997)">
    <text
       xml:space="preserve"
       style="text-align:start;writing-mode:lr-tb;direction:ltr;text-anchor:start;fill:#d40000;stroke:#d40000;stroke-width:34.88;stroke-miterlimit:2"
       x="686.03522"
       y="289.7002"
       id="text4"><tspan
         sodipodi:role="line"
         id="tspan4"
         x="686.03522"
         y="289.7002" /></text>
    <text
       xml:space="preserve"
       id="text7"
       style="font-size:192px;text-align:start;writing-mode:lr-tb;direction:ltr;white-space:pre;shape-inside:url(#rect7);fill:#d40000;stroke:#d40000;stroke-width:34.88;stroke-miterlimit:2"
       transform="translate(15.522375,-10.2998)" />
    <text
       xml:space="preserve"
       id="text8"
       style="font-style:normal;font-variant:normal;font-weight:normal;font-stretch:normal;font-size:192px;font-family:'Comic Sans MS';-inkscape-font-specification:'Comic Sans MS';text-align:start;writing-mode:lr-tb;direction:ltr;white-space:pre;shape-inside:url(#rect8);fill:#d40000;stroke:#d40000;stroke-width:34.88;stroke-miterlimit:2"
       transform="translate(15.522375,-10.2998)" />
    <path
       id="text9"
       style="font-style:normal;font-variant:normal;font-weight:normal;font-stretch:normal;font-size:576px;font-family:'Times New Roman';-inkscape-font-specification:'Times New Roman, ';text-align:start;writing-mode:lr-tb;direction:ltr;text-anchor:start;fill:#d40000;stroke:#d40000;stroke-width:0;stroke-miterlimit:2;stroke-dasharray:none"
       d="m 503.34465,304.83887 c -29.0625,0 -53.34375,9.28125 -72.84375,27.84375 -19.3125,18.5625 -31.3125,45.1875 -36,79.875 h 10.40625 c 7.125,-21.1875 18.09375,-37.21875 32.90625,-48.09375 15,-11.0625 31.875,-16.59375 50.625,-16.59375 20.625,0 38.34375,7.78125 53.15625,23.34375 14.8125,15.5625 22.21875,35.4375 22.21875,59.625 0,31.6875 -13.5,66.65625 -40.5,104.90625 -27,38.25 -73.59375,87.5625 -139.78125,147.9375 v 10.40625 h 225 l 26.71875,-73.40625 h -10.40625 c -4.875,8.4375 -10.59375,15 -17.15625,19.6875 -6.5625,4.5 -13.96875,7.5 -22.21875,9 -8.0625,1.5 -22.21875,2.25 -42.46875,2.25 h -99.5625 c 11.625,-10.5 40.78125,-41.25 87.46875,-92.25 31.125,-33.9375 53.625,-66.09375 67.5,-96.46875 9,-19.3125 13.5,-38.625 13.5,-57.9375 0,-27 -10.40625,-50.4375 -31.21875,-70.3125 -20.625,-19.875 -46.40625,-29.8125 -77.34375,-29.8125 z" />
    <path
       id="text9-4"
       style="font-style:normal;font-variant:normal;font-weight:normal;font-stretch:normal;font-size:576px;font-family:'Times New Roman';-inkscape-font-specification:'Times New Roman, ';text-align:start;writing-mode:lr-tb;direction:ltr;text-anchor:start;fill:#d40000;stroke:#d40000;stroke-width:0;stroke-miterlimit:2;stroke-dasharray:none"
       d="m 633.98719,405.5575 c 0,0 -0.30426,4.39426 -0.25586,4.47266 v 0.002 l 0.002,0.002 c 0.013,-0.26227 0.25391,-4.47656 0.25391,-4.47656 z m 30.9375,58.42383 c -2.6865,1.87708 -5.38157,3.74038 -8.04297,5.65234 -4.67405,3.42171 -9.2744,6.94176 -13.84961,10.49414 -4.65501,3.62594 -9.26171,7.31917 -13.78711,11.10547 -2.62774,2.27882 -5.17594,4.66394 -7.94727,6.76563 -1.06523,-1.00476 -1.987,-1.82646 -2.77734,-2.50586 v 158.6875 h -75.65625 c 0.10669,12.33688 0.22667,24.67785 -0.13477,37.01172 -0.0246,0.36215 -0.0416,0.69896 -0.0566,1.00976 0.15209,0.58054 0.32294,1.17675 -0.0742,1.26758 -0.0214,0.24225 -0.0484,0.45817 -0.0879,0.64844 h 76.00972 v 100.6875 h 46.40625 v -100.6875 h 51.1875 v -39.9375 h -51.1875 z m -42.52735,32.90429 c -0.12825,0.13292 -0.25856,0.26393 -0.39257,0.39063 -0.008,0.007 -0.0144,0.0135 -0.0176,0.0176 l -0.002,0.002 v 0.002 0.002 0.002 h 0.002 c 0.0489,-0.0151 0.40396,-0.27108 0.41015,-0.41602 z M 533.87781,654.1825 c 0.0769,0.0905 0.15171,0.18234 0.22461,0.27539 l -0.006,-0.27539 z m -57.17578,28.38867 c -0.1245,0.10465 -0.31313,0.27009 -0.66797,0.57617 5e-4,3.7e-4 0.005,0.003 0.006,0.004 h 0.002 0.002 l 0.002,0.002 h 0.002 l 0.002,0.002 c 0.0448,0.0293 0.0886,0.0597 0.13281,0.0898 0.26674,-0.17638 0.42952,-0.40789 0.52148,-0.67383 z m -14.57031,1.85742 -0.002,0.002 -0.002,0.002 h -0.002 c -0.0365,0.015 -0.10598,0.11087 -0.14844,0.14258 -0.0312,0.0378 -0.063,0.075 -0.0937,0.11328 0.004,0.0341 0.008,0.069 0.0117,0.10351 0.18019,-0.0986 0.28195,-0.21416 0.25,-0.34375 v -0.004 -0.002 l -0.002,-0.002 v -0.002 l -0.002,-0.002 v -0.002 l -0.002,-0.002 h -0.002 l -0.002,-0.002 h -0.002 z" />
    <rect
       style="fill:#ffffff;stroke:#d40000;stroke-width:0;stroke-miterlimit:2;stroke-dasharray:none"
       id="rect21"
       width="67.741943"
       height="42.741936"
       x="551.039"
       y="608.68146" />
    <path
       style="fill:#ffffff;stroke:#ffffff;stroke-width:26.84;stroke-miterlimit:2;stroke-dasharray:none"
       d="m 602.86611,527.13658 80.5128,-71.01409"
       id="path1" />
  </g>
</svg>
