<?xml version="1.0" encoding="UTF-8" standalone="no"?>
<!-- Created with Inkscape (http://www.inkscape.org/) -->

<svg
   version="1.1"
   id="svg1"
   width="2631"
   height="3024"
   viewBox="0 0 2631 3024"
   sodipodi:docname="Lune_noir.svg"
   inkscape:version="1.4.2 (f4327f4, 2025-05-13)"
   xmlns:inkscape="http://www.inkscape.org/namespaces/inkscape"
   xmlns:sodipodi="http://sodipodi.sourceforge.net/DTD/sodipodi-0.dtd"
   xmlns="http://www.w3.org/2000/svg"
   xmlns:svg="http://www.w3.org/2000/svg">
  <defs
     id="defs1" />
  <sodipodi:namedview
     id="namedview1"
     pagecolor="#ffffff"
     bordercolor="#000000"
     borderopacity="0.25"
     inkscape:showpageshadow="2"
     inkscape:pageopacity="0.0"
     inkscape:pagecheckerboard="0"
     inkscape:deskcolor="#d1d1d1"
     inkscape:zoom="0.097858528"
     inkscape:cx="1185.3847"
     inkscape:cy="2283.9093"
     inkscape:window-width="1920"
     inkscape:window-height="1017"
     inkscape:window-x="-8"
     inkscape:window-y="-8"
     inkscape:window-maximized="1"
     inkscape:current-layer="g1" />
  <g
     inkscape:groupmode="layer"
     inkscape:label="Image"
     id="g1">
    <path
       style="fill:#000000"
       d="m 1070.6618,3022.9088 c -84.0078,-2.7007 -170.09347,-12.7379 -252.03234,-29.3858 -26.20743,-5.3246 -36.37715,-7.5905 -38.06955,-8.4822 -0.81262,-0.4281 2.94887,-4.1228 10.5,-10.3136 44.68321,-36.6335 107.03057,-96.9035 150.82139,-145.7962 163.7182,-182.7921 276.4472,-403.5442 327.3421,-641.0188 15.0868,-70.3948 23.9472,-136.1197 29.3134,-217.4408 1.6966,-25.7102 1.6923,-132.7716 -0.01,-157.5 -3.5562,-51.7706 -6.902,-84.5281 -12.7674,-125 C 1247.9523,1427.0735 1136.4104,1181.7519 963.8549,979.97775 918.90132,927.41215 863.29137,871.69395 810.59752,826.42195 606.05411,650.68805 354.70306,537.68665 87.586684,501.37365 c -17.38474,-2.3634 -20.59193,-2.5628 -22.73831,-1.4141 -2.10851,1.1284 -5.03891,1.0652 -18.76052,-0.4044 -8.94394,-0.9579 -22.71846,-2.2687 -30.61007,-2.9127 -7.8915997,-0.6441 -14.3391997,-1.5413 -14.3280097,-1.9938 0.0372,-1.5041 33.6668297,-36.8756 55.3248697,-58.1904 C 134.36672,359.80045 216.93211,293.93905 306.82615,236.75595 642.33586,23.332849 1047.5143,-49.382551 1436.2541,34.063049 c 110.9365,23.8132 216.2944,59.3061 324.1806,109.209501 15.2601,7.0587 62.477,30.9771 80.6958,40.8777 215.7481,117.243 402.0533,288.1811 537.6701,493.3212 142.6946,215.8461 227.5931,463.72405 246.9435,720.99995 5.4648,72.6585 5.4753,155.1262 0.029,226.5 -19.6082,256.9612 -102.9748,501.9922 -243.944,717 -127.2341,194.0588 -300.3212,358.2374 -501.5028,475.6912 -60.533,35.3403 -132.2,70.3852 -198.2141,96.9258 -193.9701,77.9847 -403.0319,115.0206 -611.4503,108.3204 z M 936.66611,2910.4217 c 136.94169,-15.0758 267.20589,-50.2054 393.16009,-106.0274 26.6155,-11.7958 80.0692,-38.4992 105.5043,-52.7059 239.0492,-133.5203 429.3081,-335.6989 547.4729,-581.7722 66.4594,-138.399 108.5099,-288.413 123.4612,-440.4448 4.8778,-49.6 5.5066,-64.2559 5.5347,-129 0.027,-63.2783 -0.4356,-75.633 -4.5347,-121 -21.3454,-236.2403 -107.2585,-464.5072 -247.0877,-656.49995 -191.1514,-262.4608 -472.0288,-445.1352 -789.3507,-513.3706 -173.81108,-37.3756 -354.44815,-39.079 -529.00004,-4.9887 -97.29345,19.0017 -188.87833,47.7877 -282.50001,88.7926 -18.12192,7.9372 -92.40434,44.4956 -91.74646,45.1535 0.20497,0.205 5.96928,-0.7211 12.80957,-2.058 79.1831,-15.4758 158.30072,-22.8675 244.9369,-22.8837 47.36965,-0.01 70.18603,0.891 112,4.4168 289.00326,24.3695 562.29544,146.2111 774.00004,345.0719 17.3187,16.268 55.4277,54.7498 70.1795,70.8662 154.8255,169.14615 261.7818,375.42795 310.3105,598.48205 49.1114,225.7321 36.8373,463.7198 -35.1748,682.0179 -53.1754,161.1969 -137.1447,309.7846 -247.7897,438.4763 -52.6773,61.2691 -116.3591,122.5068 -179.0255,172.1541 -90.6861,71.846 -195.9678,134.2356 -300.00005,177.7791 -9.35,3.9135 -18.35,7.756 -20,8.539 l -3,1.4236 3.33996,0.064 c 1.83698,0.035 13.76198,-1.0834 26.5,-2.4857 z"
       id="path1" />
  </g>
</svg>
