<?xml version="1.0" encoding="UTF-8" standalone="no"?>
<!-- Created with Inkscape (http://www.inkscape.org/) -->

<svg
   version="1.1"
   id="svg1"
   width="800"
   height="771"
   viewBox="0 0 800 771"
   sodipodi:docname="Mars_noir.svg"
   inkscape:version="1.4.2 (f4327f4, 2025-05-13)"
   xmlns:inkscape="http://www.inkscape.org/namespaces/inkscape"
   xmlns:sodipodi="http://sodipodi.sourceforge.net/DTD/sodipodi-0.dtd"
   xmlns="http://www.w3.org/2000/svg"
   xmlns:svg="http://www.w3.org/2000/svg">
  <defs
     id="defs1" />
  <sodipodi:namedview
     id="namedview1"
     pagecolor="#ffffff"
     bordercolor="#000000"
     borderopacity="0.25"
     inkscape:showpageshadow="2"
     inkscape:pageopacity="0.0"
     inkscape:pagecheckerboard="0"
     inkscape:deskcolor="#d1d1d1"
     inkscape:zoom="0.38381866"
     inkscape:cx="448.12829"
     inkscape:cy="324.37193"
     inkscape:window-width="1920"
     inkscape:window-height="1017"
     inkscape:window-x="-8"
     inkscape:window-y="-8"
     inkscape:window-maximized="1"
     inkscape:current-layer="g1" />
  <g
     inkscape:groupmode="layer"
     inkscape:label="Image"
     id="g1">
    <path
       style="fill:#000000"
       d="m 292.27955,745.05469 c -56.36543,-5.7778 -108.95887,-26.8614 -154.5,-61.9358 -12.52006,-9.6426 -41.583463,-38.915 -51.136613,-51.5044 -25.650297,-33.8026 -43.313361,-70.1112 -53.268669,-109.5 -10.70489,-42.3547 -11.353864,-92.79212 -1.75691,-136.54487 19.093889,-87.0495 78.639122,-162.64405 158.662192,-201.42666 32.61711,-15.80765 62.50631,-24.4838 98.5,-28.59231 19.82256,-2.26265 56.62633,-1.54573 76.23659,1.48506 54.63335,8.44366 103.4548,30.58687 146.58553,66.48459 l 8.82319,7.34354 75.42734,-66.5253 c 41.48504,-36.58892 75.57735,-66.907534 75.76068,-67.374694 0.18334,-0.46716 -0.94166,-0.85029 -2.5,-0.8514 -5.91757,-0.004 -160.59943,-9.93076 -161.00074,-10.33207 -0.36923,-0.36923 63.49612,-57.32907 67.62661,-60.31441 1.21308,-0.87676 24.94682,0.32544 100.31279,5.0812 54.29806,3.42633 98.88504,6.41816 99.08217,6.64849 0.19714,0.23034 -2.43341,44.89008 -5.84566,99.243864 l -6.20408,98.82507 -2.40221,2.33236 c -4.22826,4.10533 -67.27382,59.4815 -67.45025,59.24504 -0.0934,-0.12514 2.17916,-37.12753 5.05006,-82.22753 2.8709,-45.1 5.09053,-82.15438 4.93251,-82.34306 -0.26271,-0.31368 -141.08552,123.43392 -147.88511,129.95357 l -2.95058,2.82911 3.22365,4.28019 c 31.01453,41.17946 50.45349,87.41897 58.3428,138.78019 1.89751,12.35322 2.22727,18.57147 2.22727,42 0,23.55194 -0.32293,29.58173 -2.24935,42.00003 -10.47403,67.5189 -39.4557,124.1447 -87.26494,170.5025 -15.21972,14.7576 -25.51616,23.1003 -42.38683,34.3439 -35.36616,23.5699 -77.19872,39.6247 -120.48754,46.2416 -15.49259,2.368 -56.18785,3.4222 -71.5039,1.8522 z m 110.19431,-39.8438 c 29.34894,-6.4147 52.37352,-18.9843 73.3215,-40.028 14.23445,-14.2995 22.91735,-26.4293 31.90343,-44.5684 16.15438,-32.6089 23.37373,-65.7799 23.39636,-107.5 0.0159,-29.2719 -2.80698,-52.34389 -9.77967,-79.9319 -12.94551,-51.21992 -38.14995,-101.70977 -70.92016,-142.06813 -14.41547,-17.75347 -40.10774,-42.14476 -58.74052,-55.7661 -26.25871,-19.19622 -60.00696,-34.3631 -89.91953,-40.41095 -15.29029,-3.09145 -47.58287,-3.36194 -60.95572,-0.51058 -28.71654,6.12296 -52.49984,18.57321 -72.80587,38.11293 -16.26538,15.65155 -25.6602,28.88519 -36.25893,51.0747 -9.55078,19.99554 -15.72465,41.43689 -19.58005,68 -2.37172,16.34072 -2.36703,54.76948 0.009,72.88148 8.88794,67.75415 36.04546,131.25075 78.9615,184.61855 9.30137,11.5666 39.02811,40.6785 50.17446,49.1366 13.06113,9.9111 27.68901,19.426 39.5,25.6931 20.18326,10.7098 46.31268,19.5376 65.5,22.1293 4.95,0.6686 9.675,1.3803 10.5,1.5816 0.825,0.2012 9.375,0.1858 19,-0.034 12.54945,-0.2871 20.10096,-0.9688 26.69431,-2.4099 z"
       id="path1" />
  </g>
</svg>
