<?xml version="1.0" encoding="UTF-8" standalone="no"?>
<!-- Created with Inkscape (http://www.inkscape.org/) -->

<svg
   version="1.1"
   id="svg1"
   width="444"
   height="800"
   viewBox="0 0 444 800"
   sodipodi:docname="Mercure_noir.svg"
   inkscape:version="1.4.2 (f4327f4, 2025-05-13)"
   xmlns:inkscape="http://www.inkscape.org/namespaces/inkscape"
   xmlns:sodipodi="http://sodipodi.sourceforge.net/DTD/sodipodi-0.dtd"
   xmlns="http://www.w3.org/2000/svg"
   xmlns:svg="http://www.w3.org/2000/svg">
  <defs
     id="defs1" />
  <sodipodi:namedview
     id="namedview1"
     pagecolor="#ffffff"
     bordercolor="#000000"
     borderopacity="0.25"
     inkscape:showpageshadow="2"
     inkscape:pageopacity="0.0"
     inkscape:pagecheckerboard="0"
     inkscape:deskcolor="#d1d1d1"
     inkscape:zoom="0.523125"
     inkscape:cx="319.23536"
     inkscape:cy="650.89606"
     inkscape:window-width="1920"
     inkscape:window-height="1017"
     inkscape:window-x="-8"
     inkscape:window-y="-8"
     inkscape:window-maximized="1"
     inkscape:current-layer="g1" />
  <g
     inkscape:groupmode="layer"
     inkscape:label="Image"
     id="g1">
    <path
       style="fill:#000000"
       d="m 202.5165,745.24998 v -53 h -47 -47 v -12.5 -12.5 h 47 47 v -53.49996 -53.5 l 3.25,-0.10285 c 1.7875,-0.0566 -1.45167,-0.74088 -7.19815,-1.52067 C 116.17253,547.44537 50.853574,484.60644 36.020234,402.25002 33.770254,389.75787 32.939003,362.26858 34.42867,349.61733 37.969497,319.54624 48.224182,290.84651 64.167608,266.38713 84.125385,235.7692 114.1889,210.12669 146.61183,196.0668 l 9.59533,-4.16093 -9.59533,-3.23844 C 121.35323,180.14258 97.726143,167.29774 78.300436,151.53001 66.808007,142.20168 49.182785,123.07607 41.524747,111.62371 22.840556,83.68208 12.470682,52.11467 12.543525,23.40065 l 0.02702,-10.65063 3.807767,9.60147 c 16.104144,40.60735 46.241205,76.95171 84.136568,101.4661 21.33466,13.80132 46.22878,23.75085 77.00162,30.77552 31.36869,7.16069 47.77025,7.30894 80.13389,0.72428 39.88124,-8.11418 64.27045,-18.59264 93.36611,-40.11338 35.66422,-26.37919 61.81181,-62.10631 76.03085,-103.88577 l 3.25641,-9.56822 0.75085,4.9563 c 1.13215,7.47322 -0.26493,31.78808 -2.45315,42.69495 -8.47005,42.21758 -33.17833,79.89155 -70.63718,107.7041 -17.84631,13.25058 -40.88157,25.25439 -60.16732,31.35354 -3.98451,1.26011 -7.25265,2.52104 -7.26252,2.80207 -0.01,0.28102 4.36956,2.41351 9.73206,4.73885 47.60484,20.64288 86.65887,63.38568 103.24681,112.99877 7.79268,23.30723 10.54377,42.32191 9.72082,67.18719 -1.3007,39.30023 -12.41573,72.0897 -35.69972,105.31465 -8.36273,11.93315 -30.75126,34.33942 -42.73364,42.76749 -26.42472,18.58643 -55.56402,30.18279 -86.33612,34.35857 -6.35872,0.86288 -8.78469,1.45807 -6.19815,1.52067 l 4.25,0.10285 v 53.5 53.49996 h 46 46 v 12.5 12.5 h -46 -46 v 53 53 h -22 -22 z m 80.13857,-212.3555 c 17.38934,-5.17564 29.16097,-12.10529 41.46513,-24.40945 27.24608,-27.24608 39.68759,-71.95101 33.88092,-121.74114 -10.18373,-87.32174 -73.22645,-165.77941 -145.48462,-181.05792 -12.44431,-2.63127 -32.74193,-2.4572 -44.27432,0.37968 -44.4335,10.93031 -73.527147,49.06205 -79.650977,104.39496 -5.688514,51.39948 12.545127,112.10705 47.137247,156.94003 23.39661,30.32308 53.69391,53.01507 84.01072,62.92215 14.85124,4.85315 22.45788,5.9201 39.27733,5.50923 12.49294,-0.30517 16.44383,-0.79615 23.63857,-2.93754 z"
       id="path2" />
    <path
       style="fill:#000000"
       id="path1" />
  </g>
</svg>
