<?xml version="1.0" encoding="UTF-8" standalone="no"?>
<!-- Created with Inkscape (http://www.inkscape.org/) -->

<svg
   version="1.1"
   id="svg1"
   width="708"
   height="800"
   viewBox="0 0 708 800"
   sodipodi:docname="Neptune_noir.svg"
   inkscape:version="1.4.2 (f4327f4, 2025-05-13)"
   xmlns:inkscape="http://www.inkscape.org/namespaces/inkscape"
   xmlns:sodipodi="http://sodipodi.sourceforge.net/DTD/sodipodi-0.dtd"
   xmlns="http://www.w3.org/2000/svg"
   xmlns:svg="http://www.w3.org/2000/svg">
  <defs
     id="defs1" />
  <sodipodi:namedview
     id="namedview1"
     pagecolor="#ffffff"
     bordercolor="#000000"
     borderopacity="0.25"
     inkscape:showpageshadow="2"
     inkscape:pageopacity="0.0"
     inkscape:pagecheckerboard="0"
     inkscape:deskcolor="#d1d1d1"
     inkscape:zoom="0.36990524"
     inkscape:cx="232.49198"
     inkscape:cy="579.87825"
     inkscape:window-width="1920"
     inkscape:window-height="1017"
     inkscape:window-x="-8"
     inkscape:window-y="-8"
     inkscape:window-maximized="1"
     inkscape:current-layer="g1" />
  <g
     inkscape:groupmode="layer"
     inkscape:label="Image"
     id="g1">
    <path
       style="fill:#000000"
       d="m 321.11384,706.0956 v -93 h -68.5 -68.5 v -17.5 -17.5 h 68.5 68.5 v -80.00003 c 0,-44 -0.20953,-80 -0.46562,-80 -0.25609,0 -5.54359,-0.70303 -11.75,-1.56229 C 234.47618,406.22973 164.47789,368.44101 116.36822,312.59557 70.993273,259.92457 46.423359,198.46248 43.305774,129.8285 l -0.69193,-15.23293 -20.78181,-0.5 -20.7818005,-0.5 L 34.332037,56.911375 C 52.637031,25.735075 67.959418,0.56565549 68.381786,0.97932549 68.804155,1.3929955 83.555301,27.125875 101.16211,58.163505 l 32.01238,56.432065 -20.03033,0.27071 -20.030316,0.2707 v 10.01871 c 0,33.02589 9.320286,69.8577 26.175466,103.43988 36.30174,72.3274 108.68221,124.65379 190.82453,137.95378 5.225,0.846 9.83922,1.53999 10.25383,1.5422 0.41461,0.002 0.63961,-57.03348 0.5,-126.74598 l -0.25383,-126.75 -16.11583,-0.5 -16.11584,-0.5 32.8965,-55.980675 C 339.37175,26.825525 354.50245,1.3069555 354.90245,0.90694549 355.521,0.28840549 420.11384,112.8012 420.11384,114.49718 c 0,0.32911 -7.425,0.59839 -16.5,0.59839 h -16.5 v 126.51182 126.51182 l 4.25,-0.60812 c 46.05677,-6.59009 90.46208,-25.47403 127.25,-54.11475 57.50327,-44.76835 94.30684,-116.25907 95.73677,-185.96809 l 0.26323,-12.83268 -19.76539,-0.5 -19.76539,-0.5 33.26539,-56.687905 c 24.80008,-42.26208 33.54554,-56.38560951 34.36626,-55.4999995 0.96214,1.0382 63.363,110.6724045 64.23246,112.8522145 0.18334,0.45963 -9.37916,0.83569 -21.25,0.83569 h -21.58333 v 11.75613 c 0,38.27299 -11.67913,84.70115 -31.00466,123.25316 -15.52192,30.9643 -34.012,56.07382 -59.66106,81.01973 -15.91681,15.48046 -25.76846,23.44012 -44.33914,35.82388 -31.154,20.77488 -70.02036,37.3533 -105.94187,45.18945 -7.89208,1.72163 -32.76229,5.91117 -35.30327,5.94706 -0.4125,0.006 -0.75,36.01059 -0.75,80.01059 v 80.00003 h 68 68 v 17.5 17.5 h -68 -68 v 93 93 h -33 -33 z"
       id="path1" />
  </g>
</svg>
