<?xml version="1.0" encoding="UTF-8" standalone="no"?>
<!-- Created with Inkscape (http://www.inkscape.org/) -->

<svg
   version="1.1"
   id="svg1"
   width="2024"
   height="3024"
   viewBox="0 0 2024 3024"
   sodipodi:docname="Pluton_noir.svg"
   inkscape:version="1.4.2 (f4327f4, 2025-05-13)"
   xmlns:inkscape="http://www.inkscape.org/namespaces/inkscape"
   xmlns:sodipodi="http://sodipodi.sourceforge.net/DTD/sodipodi-0.dtd"
   xmlns="http://www.w3.org/2000/svg"
   xmlns:svg="http://www.w3.org/2000/svg">
  <defs
     id="defs1" />
  <sodipodi:namedview
     id="namedview1"
     pagecolor="#ffffff"
     bordercolor="#000000"
     borderopacity="0.25"
     inkscape:showpageshadow="2"
     inkscape:pageopacity="0.0"
     inkscape:pagecheckerboard="0"
     inkscape:deskcolor="#d1d1d1"
     inkscape:zoom="0.097858528"
     inkscape:cx="1604.3569"
     inkscape:cy="2202.1586"
     inkscape:window-width="1920"
     inkscape:window-height="1017"
     inkscape:window-x="-8"
     inkscape:window-y="-8"
     inkscape:window-maximized="1"
     inkscape:current-layer="g1" />
  <g
     inkscape:groupmode="layer"
     inkscape:label="Image"
     id="g1">
    <path
       style="fill:#000000"
       d="m 898.00862,2763.1582 v -260.5 h -227.00003 -227 v -57 -57 h 227 227.00003 v -266 c 0,-166.6379 -0.3536,-266 -0.9465,-266 -2.7894,0 -48.00072,-6.5146 -63.02059,-9.0807 -30.3331,-5.1825 -66.2972,-13.6584 -101.53294,-23.9289 C 514.2386,1760.027 327.04298,1631.9737 193.82819,1455.1582 138.28286,1381.4331 92.32445,1299.0914 56.58723,1209.2695 43.31009,1175.8987 34.74513,1148.8267 20.16864,1094.1582 9.1023402,1052.6545 -1.3193298,1004.6528 0.36944025,1002.964 c 0.65789995,-0.6579 5.11875995,8.2386 16.91236975,33.729 45.07238,97.4184 92.11658,172.1047 153.41909,243.5646 35.98368,41.9459 80.73758,86.718 122.30769,122.3574 88.23312,75.6452 187.01725,135.8612 294.77617,179.6872 115.48211,46.967 240.08994,74.2705 371.72386,81.4502 27.494,1.4996 101.13208,0.6276 128.49998,-1.5216 158.5742,-12.4529 284.9571,-46.2594 420.5,-112.4808 127.2143,-62.1524 239.9639,-149.7316 339.992,-264.0918 64.0822,-73.264 112.1622,-148.7653 156.9736,-246.5 13.7043,-29.8893 17.8218,-38.5459 18.1691,-38.1987 2.0899,2.0899 -15.7831,80.6807 -28.0773,123.4615 -61.1007,212.6145 -191.969,401.4261 -370.5837,534.6635 -102.0837,76.1491 -216.6138,132.3572 -339.0637,166.4026 -47.5977,13.2338 -96.1818,22.9038 -157.0335,31.2553 l -8.6235,1.1835 -0.6275,134.1161 c -0.3451,73.7639 -0.9089,193.1787 -1.2528,265.3662 l -0.6255,131.25 h 225.1264 225.1264 v 57 57 h -225 -225 v 260.5 260.5 h -110 -109.99998 z m 86.5,-1177.1743 c -52.1878,-3.2751 -97.55199,-9.1691 -137.88547,-17.9149 -259.40975,-56.25 -473.23769,-237.5481 -570.16436,-483.4247 -36.90148,-93.6091 -55.45428,-191.3284 -55.43588,-291.9861 0.008,-41.6851 2.15929,-71.9812 8.04843,-113.3239 C 256.34679,487.8561 355.38194,310.0318 504.06738,185.5605 622.94601,86.0418 773.39209,21.7967 927.50862,4.7382 c 31.2576,-3.4598 49.0465,-4.3964 83.49998,-4.3964 35.6422,0 52.1098,0.9158 87.8421,4.8847 116.7166,12.9642 228.6443,50.7453 326.6579,110.2631 126.8429,77.0242 229.4958,189.1476 297.2455,324.6686 31.1837,62.3774 56.4419,137.8348 71.1311,212.5 6.2018,31.5238 7.1151,45.6811 7.8145,121.1282 0.8276,89.2914 -1.0126,125.4493 -8.213,161.3718 -45.4234,226.6161 -172.063,412.7474 -361.1541,530.8142 -96.534,60.275 -205.2578,98.7903 -319.324,113.1202 -46.6945,5.8661 -99.6135,8.7041 -128.49998,6.8913 z M 1161.5086,1483.638 c 64.7899,-2.9485 96.9303,-9.3748 141,-28.1923 48.5514,-20.731 90.5525,-48.867 126.5533,-84.7763 36.5869,-36.4938 63.1571,-74.0169 87.4588,-123.5112 28.5175,-58.0805 46.9073,-121.0431 55.9326,-191.5 4.1955,-32.7526 4.9946,-47.7906 5.022,-94.5 0.027,-46.7669 -0.4957,-57.6055 -4.5366,-94 -16.1738,-145.6705 -70.8818,-294.6008 -155.3929,-423.0226 -29.7726,-45.2419 -54.7207,-76.5441 -95.8995,-120.324 -67.5399,-71.8063 -136.4617,-125.4843 -208.1377,-162.1031 -52.2911,-26.7152 -113.2019,-47.1642 -162.49378,-54.5526 -55.9348,-8.384 -108.9822,-8.3458 -150.74973,0.1086 -95.93644,19.4191 -178.32409,70.4137 -238.57068,147.6657 -94.17369,120.7555 -131.98115,297.1556 -105.06956,490.228 11.51617,82.6208 36.70175,167.0743 77.06048,258.4029 25.98736,58.8073 51.54345,104.6669 86.15212,154.5971 116.93995,168.7102 275.90837,283.8102 439.67115,318.3408 23.4897,4.953 31.4002,6.1382 47.4088,7.1032 18.8146,1.1341 30.2917,1.1416 54.5912,0.036 z"
       id="path1" />
  </g>
</svg>
