<?xml version="1.0" encoding="UTF-8" standalone="no"?>
<!-- Created with Inkscape (http://www.inkscape.org/) -->

<svg
   version="1.1"
   id="svg1"
   width="1559"
   height="3024"
   viewBox="0 0 1559 3024"
   sodipodi:docname="Saturne_noir.svg"
   inkscape:version="1.4.2 (f4327f4, 2025-05-13)"
   xmlns:inkscape="http://www.inkscape.org/namespaces/inkscape"
   xmlns:sodipodi="http://sodipodi.sourceforge.net/DTD/sodipodi-0.dtd"
   xmlns="http://www.w3.org/2000/svg"
   xmlns:svg="http://www.w3.org/2000/svg">
  <defs
     id="defs1" />
  <sodipodi:namedview
     id="namedview1"
     pagecolor="#ffffff"
     bordercolor="#000000"
     borderopacity="0.25"
     inkscape:showpageshadow="2"
     inkscape:pageopacity="0.0"
     inkscape:pagecheckerboard="0"
     inkscape:deskcolor="#d1d1d1"
     inkscape:zoom="0.13839286"
     inkscape:cx="679.22581"
     inkscape:cy="1477.6774"
     inkscape:window-width="1920"
     inkscape:window-height="1017"
     inkscape:window-x="-8"
     inkscape:window-y="-8"
     inkscape:window-maximized="1"
     inkscape:current-layer="g1" />
  <g
     inkscape:groupmode="layer"
     inkscape:label="Image"
     id="g1">
    <path
       style="fill:#000000"
       d="m 384.18719,2997.2336 v -26.7664 l 44.18789,-40.9836 C 596.55754,2773.497 747.15579,2624.3973 861.74872,2500.4225 1036.4493,2311.4188 1144.6831,2165.2121 1218.136,2019 c 55.2707,-110.0193 83.8835,-203.9287 93.2336,-306 1.6694,-18.2244 1.6554,-77.8546 -0.022,-94.5 -8.9569,-88.8688 -35.081,-160.7367 -80.8034,-222.2916 C 1137.7691,1271.3079 998.43673,1216.0415 845.68719,1243.5544 717.81863,1266.5858 614.26072,1339.22 544.21926,1455 c -12.27373,20.2887 -29.21887,55.238 -41.53564,85.6671 l -10.99643,27.1671 -8.5,0.8329 c -9.95063,0.975 -152.48423,0.8318 -190.75,-0.1917 l -26.25,-0.7021 V 1145.3866 723 h -133 H 0.18719193 V 622 521 H 133.18719 h 133 V 260.5 0 h 116.87868 116.87869 l 0.6182,49.75 c 0.34002,27.3625 0.90112,143.9484 1.2469,259.0796 0.46147,153.652 0.92776,209.4167 1.75311,209.657 0.61843,0.18 57.37442,0.8388 126.12442,1.464 183.45482,1.6683 253.50526,3.2661 260.75393,5.9477 l 2.24607,0.8309 -0.28653,92.8854 c -0.15759,51.087 -0.54091,95.1997 -0.85183,98.0282 l -0.56529,5.1428 -21.14818,0.6023 c -11.63149,0.3312 -98.99817,0.942 -194.14817,1.3572 l -173,0.7549 -0.87284,223.5 c -0.83157,212.9311 -0.0477,378.9219 1.79808,380.7523 1.30875,1.2978 5.0925,-4.5068 14.10267,-21.6346 15.82209,-30.0768 23.51649,-43.4002 35.00738,-60.6177 19.40367,-29.0737 35.96862,-49.2671 61.78905,-75.3235 65.47634,-66.0746 146.70421,-112.9415 238.67566,-137.7112 41.40337,-11.1508 65.8408,-14.0834 126,-15.1209 63.99591,-1.1036 116.77851,2.592 153.99991,10.7824 45.4357,9.9979 88.4273,24.7588 127.5,43.7762 25.1432,12.2377 37.2358,19.1641 60.5,34.6534 65.8731,43.8582 127.8019,107.6843 167.622,172.7576 61.218,100.0411 82.2066,214.2121 63.2733,344.186 -25.5164,175.1661 -140.425,386.5999 -335.8663,618 -42.1272,49.8781 -102.6744,116.4648 -245.51017,270 -131.50083,141.351 -162.8762,174.1538 -207.01874,216.4366 -70.49177,67.5221 -102.07176,96.7974 -238.79114,221.3645 L 445.1049,3024 h -30.45885 -30.45886 z"
       id="path1" />
  </g>
</svg>
