<?xml version="1.0" encoding="UTF-8" standalone="no"?>
<svg
   width="1000"
   height="1000"
   viewBox="0 0 1000 1000"
   version="1.1"
   id="svg2"
   sodipodi:docname="Saturne.svg"
   inkscape:version="1.4.2 (f4327f4, 2025-05-13)"
   xmlns:inkscape="http://www.inkscape.org/namespaces/inkscape"
   xmlns:sodipodi="http://sodipodi.sourceforge.net/DTD/sodipodi-0.dtd"
   xmlns="http://www.w3.org/2000/svg"
   xmlns:svg="http://www.w3.org/2000/svg">
  <sodipodi:namedview
     id="namedview2"
     pagecolor="#ffffff"
     bordercolor="#000000"
     borderopacity="0.25"
     inkscape:showpageshadow="2"
     inkscape:pageopacity="0.0"
     inkscape:pagecheckerboard="0"
     inkscape:deskcolor="#d1d1d1"
     inkscape:zoom="0.76"
     inkscape:cx="614.47368"
     inkscape:cy="544.07895"
     inkscape:window-width="1920"
     inkscape:window-height="1017"
     inkscape:window-x="-8"
     inkscape:window-y="-8"
     inkscape:window-maximized="1"
     inkscape:current-layer="svg2" />
  <!-- Couleurs -->
  <defs
     id="defs1">
    <rect
       x="620"
       y="312"
       width="302"
       height="306"
       id="rect8" />
    <rect
       x="680.76923"
       y="311.53845"
       width="256.41025"
       height="296.15384"
       id="rect7" />
    <!-- Masque : cercle plein (blanc) moins l’ellipse (noir) = trou transparent -->
    <mask
       id="sunRingMask">
      <rect
         x="0"
         y="0"
         width="512"
         height="512"
         fill="#000000"
         id="rect1" />
      <!-- disque principal (zone visible) -->
      <circle
         cx="256"
         cy="256"
         r="220"
         fill="#ffffff"
         id="circle1" />
      <!-- forme oblongue intérieure (trou) -->
      <ellipse
         cx="256"
         cy="256"
         rx="145"
         ry="200"
         transform="rotate(-25,256,256)"
         fill="#000000"
         id="ellipse1" />
    </mask>
  </defs>
  <!-- Anneau du soleil (orange), le masque creuse l’ellipse oblique -->
  <!-- Pastille centrale -->
  <g
     id="g13"
     transform="matrix(1.3185167,0,0,1.3185167,-232.30581,-223.95765)">
    <text
       xml:space="preserve"
       style="text-align:start;writing-mode:lr-tb;direction:ltr;text-anchor:start;fill:#d40000;stroke:#d40000;stroke-width:34.88;stroke-miterlimit:2"
       x="720.75616"
       y="295.1803"
       id="text4"><tspan
         sodipodi:role="line"
         id="tspan4"
         x="720.75616"
         y="295.1803" /></text>
    <text
       xml:space="preserve"
       id="text7"
       style="font-size:192px;text-align:start;writing-mode:lr-tb;direction:ltr;white-space:pre;shape-inside:url(#rect7);fill:#d40000;stroke:#d40000;stroke-width:34.88;stroke-miterlimit:2"
       transform="translate(50.243352,-4.819689)" />
    <text
       xml:space="preserve"
       id="text8"
       style="font-style:normal;font-variant:normal;font-weight:normal;font-stretch:normal;font-size:192px;font-family:'Comic Sans MS';-inkscape-font-specification:'Comic Sans MS';text-align:start;writing-mode:lr-tb;direction:ltr;white-space:pre;shape-inside:url(#rect8);fill:#d40000;stroke:#d40000;stroke-width:34.88;stroke-miterlimit:2"
       transform="translate(50.243352,-4.819689)" />
    <path
       id="text9"
       style="font-style:normal;font-variant:normal;font-weight:normal;font-stretch:normal;font-size:576px;font-family:'Times New Roman';-inkscape-font-specification:'Times New Roman, ';text-align:start;writing-mode:lr-tb;direction:ltr;text-anchor:start;fill:#d40000;stroke:#d40000;stroke-width:0;stroke-miterlimit:2;stroke-dasharray:none"
       d="m 598.06625,442.49217 c -29.0625,0 -53.34375,9.28125 -72.84375,27.84375 -19.3125,18.5625 -31.3125,45.1875 -36,79.875 h 10.40625 c 7.125,-21.1875 18.09375,-37.21875 32.90625,-48.09375 15,-11.0625 31.875,-16.59375 50.625,-16.59375 20.625,0 38.34375,7.78125 53.15625,23.34375 14.8125,15.5625 22.21875,35.4375 22.21875,59.625 0,31.6875 -13.5,66.65625 -40.5,104.90625 -27,38.25 -73.59375,87.5625 -139.78125,147.9375 v 10.40625 h 46.87891 c -3.0454,-1.53745 -2.88737,-6.06023 2.61328,-8.28516 2.77626,-1.12296 5.57112,-2.19569 8.36524,-3.27148 2.56677,-2.01381 5.10112,-4.06578 7.47461,-6.3125 0.24899,-0.2357 0.49698,-0.45268 0.74414,-0.65039 0.13102,-0.91341 0.37128,-2.07667 0.55468,-3.55665 4.5923,-5.02158 9.6547,-9.58133 14.67578,-14.17187 -0.0742,-0.8732 -0.10472,-1.71364 -0.12304,-2.44531 0.20333,-0.78419 0.28481,-1.60931 0.60937,-2.35157 0.16071,-0.36753 0.4414,-0.87283 0.78907,-1.42382 H 538.16 c 11.625,-10.5 40.78125,-41.25 87.46875,-92.25 31.125,-33.9375 53.625,-66.09375 67.5,-96.46875 9,-19.3125 13.5,-38.625 13.5,-57.9375 0,-27 -10.40625,-50.4375 -31.21875,-70.3125 -20.625,-19.875 -46.40625,-29.8125 -77.34375,-29.8125 z m 81.25,371.82617 c -0.048,0.004 -0.096,0.007 -0.14453,0.0117 0.12706,0.48095 0.25705,0.96587 0.43164,1.61132 -0.0517,-0.38931 -0.11115,-0.77222 -0.18945,-1.14453 -0.0324,-0.15383 -0.0647,-0.31416 -0.0977,-0.47851 z m -84.52148,3.60937 c -0.0704,0.009 -0.14073,0.0177 -0.21094,0.0274 -0.0163,0.0131 -0.0324,0.0261 -0.0488,0.0391 0.0866,-0.0223 0.17313,-0.0441 0.25977,-0.0664 z m 105.68555,13.56836 c -0.078,0.0866 -0.16026,0.16893 -0.24414,0.2461 h 0.46679 c -0.0332,-0.0698 -0.0653,-0.14029 -0.0976,-0.21289 -0.0418,-0.0109 -0.0832,-0.0222 -0.125,-0.0332 z m -152.58985,0.0332 c -0.20769,0.0341 -0.41534,0.0678 -0.62304,0.10156 -0.0582,0.009 -0.33362,0.0504 -0.74805,0.11133 h 1.44726 c -0.0261,-0.0708 -0.0515,-0.14185 -0.0762,-0.21289 z" />
    <path
       id="text9-4"
       style="font-style:normal;font-variant:normal;font-weight:normal;font-stretch:normal;font-size:576px;font-family:'Times New Roman';-inkscape-font-specification:'Times New Roman, ';text-align:start;writing-mode:lr-tb;direction:ltr;text-anchor:start;fill:#d40000;stroke:#d40000;stroke-width:0;stroke-miterlimit:2;stroke-dasharray:none"
       d="m 486.3007,634.94692 c 0,0 0.30426,-4.39426 0.25586,-4.47266 v -0.002 l -0.002,-0.002 c -0.013,0.26227 -0.25391,4.47656 -0.25391,4.47656 z m -30.9375,-58.42383 c 2.6865,-1.87708 5.38157,-3.74038 8.04296,-5.65234 4.67404,-3.4217 9.27441,-6.94176 13.84961,-10.49414 4.655,-3.62594 9.26171,-7.31917 13.7871,-11.10547 2.62775,-2.27882 5.17594,-4.66394 7.94727,-6.76563 1.06525,1.00477 1.987,1.82646 2.77734,2.50586 v -158.6875 h 75.65625 c -0.10668,-12.33687 -0.22667,-24.67785 0.13477,-37.01171 0.0246,-0.36216 0.0416,-0.69897 0.0566,-1.00977 -0.15209,-0.58054 -0.32294,-1.17674 0.0742,-1.26757 0.0214,-0.24225 0.0484,-0.45817 0.0879,-0.64845 h -76.00972 v -100.6875 h -46.40625 v 100.6875 h -51.1875 v 39.9375 h 51.1875 z m 42.52734,-32.90429 c 0.12824,-0.13292 0.25856,-0.26393 0.39256,-0.39063 0.008,-0.007 0.0144,-0.0135 0.0176,-0.0176 l 0.002,-0.002 v -0.002 -0.002 -0.002 h -0.002 c -0.0489,0.0151 -0.40396,0.27108 -0.41016,0.41602 z m 88.51954,-157.29688 c -0.0769,-0.0905 -0.15171,-0.18234 -0.22461,-0.27539 l 0.006,0.27539 z m 57.17578,-28.38867 c 0.1245,-0.10465 0.31313,-0.27009 0.66797,-0.57617 -5e-4,-3.7e-4 -0.005,-0.003 -0.006,-0.004 h -0.002 -0.002 l -0.002,-0.002 h -0.002 l -0.002,-0.002 c -0.0448,-0.0293 -0.0886,-0.0597 -0.13281,-0.0898 -0.26674,0.17638 -0.42953,0.40789 -0.52149,0.67383 z m 14.5703,-1.85742 0.002,-0.002 0.002,-0.002 h 0.002 c 0.0365,-0.015 0.10599,-0.11087 0.14845,-0.14258 0.0312,-0.0378 0.063,-0.075 0.0937,-0.11328 -0.004,-0.0341 -0.008,-0.069 -0.0117,-0.10351 -0.18019,0.0986 -0.28196,0.21416 -0.25,0.34375 v 0.004 0.002 l 0.002,0.002 v 0.002 l 0.002,0.002 v 0.002 l 0.002,0.002 h 0.002 l 0.002,0.002 h 0.002 z" />
    <rect
       style="fill:#ffffff;stroke:#d40000;stroke-width:0;stroke-miterlimit:2;stroke-dasharray:none"
       id="rect21"
       width="67.741943"
       height="42.741936"
       x="446.42679"
       y="550.06976" />
    <path
       style="fill:#ffffff;stroke:#ffffff;stroke-width:26.84;stroke-miterlimit:2;stroke-dasharray:none"
       d="m 497.73048,842.37618 80.5128,-71.01409"
       id="path1" />
  </g>
</svg>
