<?xml version="1.0" encoding="UTF-8" standalone="no"?>
<!-- Created with Inkscape (http://www.inkscape.org/) -->

<svg
   version="1.1"
   id="svg1"
   width="3024"
   height="3023"
   viewBox="0 0 3024 3023"
   sodipodi:docname="Soleil_noir.svg"
   inkscape:version="1.4.2 (f4327f4, 2025-05-13)"
   xmlns:inkscape="http://www.inkscape.org/namespaces/inkscape"
   xmlns:sodipodi="http://sodipodi.sourceforge.net/DTD/sodipodi-0.dtd"
   xmlns="http://www.w3.org/2000/svg"
   xmlns:svg="http://www.w3.org/2000/svg">
  <defs
     id="defs1" />
  <sodipodi:namedview
     id="namedview1"
     pagecolor="#ffffff"
     bordercolor="#000000"
     borderopacity="0.25"
     inkscape:showpageshadow="2"
     inkscape:pageopacity="0.0"
     inkscape:pagecheckerboard="0"
     inkscape:deskcolor="#d1d1d1"
     inkscape:zoom="0.13843864"
     inkscape:cx="1408.5663"
     inkscape:cy="1065.454"
     inkscape:window-width="1920"
     inkscape:window-height="1017"
     inkscape:window-x="-8"
     inkscape:window-y="-8"
     inkscape:window-maximized="1"
     inkscape:current-layer="g1" />
  <g
     inkscape:groupmode="layer"
     inkscape:label="Image"
     id="g1">
    <path
       style="fill:#000000"
       d="m 1481.9503,3022.1193 c -54.3216,-0.6774 -111.7288,-3.6227 -143.5,-7.3624 -220.9801,-26.0111 -430.02748,-98.4492 -618.5,-214.3197 -52.56496,-32.3163 -111.70905,-73.8085 -157,-110.1424 C 497.52892,2637.8115 384.27597,2524.5384 332.49848,2459.802 169.05422,2255.4508 62.965787,2019.2827 20.074887,1764.302 5.0127574,1674.7596 0.72961737,1618.7441 0.72961737,1511.302 c 0,-90.4567 2.70382003,-137.1923 11.77321963,-203.5 34.13757,-249.585 126.222953,-479.71677 273.296903,-682.99997 50.92443,-70.3869 80.40429,-104.3457 157.60374,-181.5491 71.68805,-71.6916 103.33563,-99.6424 162.82252,-143.8029 124.53936,-92.4527 256.24412,-163.0141 399.7243,-214.154005 126.8599,-45.216 277.0643,-75.9707998 402.9894,-82.5132998 61.1097,-3.17499995 169.1278,-3.15209995 218.5106,0.046 32.0882,2.0783 75.2419,6.9839 114.5,13.0161998 249.7029,38.3681 483.95,138.026905 687.7498,292.598205 53.0861,40.2629 82.9436,66.9503 150.8175,134.8044 71.5933,71.5723 98.6613,102.219 143.757,162.763 154.9415,208.0197 251.269,442.70497 286.6165,698.29107 8.2047,59.3257 10.5145,90.6184 12.0036,162.623 0.9434,45.6151 0.04,116.4058 -1.9262,150.877 -4.0195,70.4839 -15.3271,148.204 -33.1619,227.9301 -49.1436,219.6855 -145.46,421.1797 -289.2297,605.0699 -52.7436,67.4623 -168.0586,183.6829 -237.6266,239.4928 -17.0945,13.7138 -58.9204,44.9807 -78.5,58.6825 -195.5107,136.8191 -413.7031,224.1848 -647.5,259.2633 -34.8211,5.2244 -75.2008,9.7609 -102.7244,11.5406 -19.349,1.2511 -95.5766,3.0611 -116.7756,2.7728 -8.25,-0.1122 -23.325,-0.3078 -33.5,-0.4347 z m 318,-194.3336 c 68.7196,-2.1385 104.6311,-5.9105 144,-15.1253 110.6324,-25.8951 216.1282,-77.207 305,-148.3484 56.359,-45.115 105.8922,-98.8731 150.6597,-163.51 101.3562,-146.3417 167.5032,-337.6196 183.2825,-530 5.9639,-72.7116 5.7254,-205.4489 -0.5184,-288.5 -4.5136,-60.0378 -15.8261,-131.682 -33.0798,-209.5 -66.4514,-299.7114 -211.1151,-587.25457 -410.7816,-816.49727 -33.4609,-38.4173 -87.7894,-94.5241 -121.8538,-125.8421 -179.9227,-165.4172 -376.5167,-273.4833 -578.7086,-318.1116 -41.3431,-9.1254 -68.524,-12.8135 -123.5,-16.7576 -24.3853,-1.7495 -121.7634,-1.7549 -141.5,-0.01 -25.148,2.226 -49.2804,5.8027 -75.5,11.1902 -133.00365,27.3286 -250.17365,86.0948 -350.5,175.792 -18.5563,16.5903 -53.99767,52.6543 -69.67572,70.8998 -88.56365,103.0667 -153.49759,227.6549 -194.83824,373.8346 -18.47597,65.3307 -31.71992,133.4026 -39.88441,204.99997 -4.94792,43.3901 -6.58317,80.9218 -6.57906,151 0.005,89.3727 2.86628,145.5294 10.51665,206.4218 43.10802,343.1143 194.26569,686.6812 419.98162,954.5782 56.54524,67.1122 120.44513,131.8285 184.76276,187.1231 183.517,157.772 392.1227,259.418 596.7164,290.7581 37.1084,5.6844 88.4981,7.5785 152,5.6025 z M 1490.0574,1700.6589 c -34.0584,-3.5601 -69.7504,-18.4743 -97.1071,-40.5771 -9.8947,-7.9943 -26.2523,-24.9141 -33.1409,-34.2798 -18.1981,-24.7419 -29.8908,-52.8784 -35.5313,-85.5 -2.5962,-15.0145 -2.359,-47.1302 0.4616,-62.5 5.0928,-27.7523 14.155,-50.1378 29.9568,-74 9.6021,-14.5001 32.055,-37.3883 45.7538,-46.6409 24.8404,-16.778 48.4413,-26.6576 77.8297,-32.5804 9.5945,-1.9336 14.3444,-2.2532 33.6703,-2.265 14.278,-0.01 25.2407,0.4698 30,1.3093 63.7359,11.2434 114.9367,49.6339 141.9834,106.4595 13.4213,28.1984 18.7855,54.7305 17.7286,87.6884 -0.8364,26.0811 -5.4671,47.8355 -14.728,69.1892 -33.2293,76.6197 -112.673,122.4986 -196.8769,113.6968 z"
       id="path1" />
  </g>
</svg>
