<?xml version="1.0" encoding="UTF-8" standalone="no"?>
<!-- Created with Inkscape (http://www.inkscape.org/) -->

<svg
   version="1.1"
   id="svg1"
   width="2067"
   height="3024"
   viewBox="0 0 2067 3024"
   sodipodi:docname="Uranus_noir.svg"
   inkscape:version="1.4.2 (f4327f4, 2025-05-13)"
   xmlns:inkscape="http://www.inkscape.org/namespaces/inkscape"
   xmlns:sodipodi="http://sodipodi.sourceforge.net/DTD/sodipodi-0.dtd"
   xmlns="http://www.w3.org/2000/svg"
   xmlns:svg="http://www.w3.org/2000/svg">
  <defs
     id="defs1" />
  <sodipodi:namedview
     id="namedview1"
     pagecolor="#ffffff"
     bordercolor="#000000"
     borderopacity="0.25"
     inkscape:showpageshadow="2"
     inkscape:pageopacity="0.0"
     inkscape:pagecheckerboard="0"
     inkscape:deskcolor="#d1d1d1"
     inkscape:zoom="0.13839286"
     inkscape:cx="953.80645"
     inkscape:cy="2395.3548"
     inkscape:window-width="1920"
     inkscape:window-height="1017"
     inkscape:window-x="-8"
     inkscape:window-y="-8"
     inkscape:window-maximized="1"
     inkscape:current-layer="g1" />
  <g
     inkscape:groupmode="layer"
     inkscape:label="Image"
     id="g1">
    <path
       style="fill:#000000"
       d="m 983.99999,3023.1765 c -45.43319,-2.0468 -125.6277,-16.668 -176.5,-32.1797 -64.25219,-19.5914 -132.73467,-52.5561 -193.5,-93.143 -132.17425,-88.283 -230.90153,-214.7384 -285.45719,-365.6294 -18.14506,-50.1859 -33.95369,-113.6162 -38.51473,-154.5359 -2.74074,-24.5887 -3.86934,-115.3491 -2.01126,-161.742 1.16738,-29.1473 3.41381,-47.929 9.00143,-75.258 48.34538,-236.457 194.2806,-426.3918 406.54508,-529.1187 71.21238,-34.4637 124.94214,-51.4477 211.82349,-66.9572 13.81225,-2.4657 26.12568,-4.7034 27.36318,-4.9726 l 2.25,-0.4896 V 1161.6065 784.06267 l -195.75,0.4278 c -203.06535,0.4438 -210.92451,0.6089 -216.22767,4.5426 -2.95428,2.1914 -3.17491,3.1439 -6.5217,28.1554 -7.44202,55.6161 -27.66144,130.4352 -49.31957,182.5 -78.76131,189.33733 -227.33992,334.53323 -420.488581,410.91533 -16.677299,6.5951 -54.7385425,20.5847 -56.0045945,20.5847 -0.392056,0 -0.594715,-16.261 -0.450355,-36.1356 l 0.262475,-36.1355 21.4999995,-6.6257 c 25.725429,-7.9278 41.538587,-14.0825 61,-23.742 109.029106,-54.1161 188.206966,-164.0555 221.359946,-307.3612 11.53882,-49.87723 16.25412,-98.18453 15.35473,-157.30583 -2.0442,-134.3745 -35.52237,-261.7843 -102.92142,-391.6942 -36.80454,-70.9398 -72.52473,-123.988 -120.096626,-178.356 -16.407111,-18.751 -57.307058,-59.7325 -80.483594,-80.644 l -16.0705635,-14.5 -0.07124,-98.817403 -0.07124,-98.8174 2.25,0.6912 c 9.1111005,2.7988 50.4461025,17.9136 64.7499995,23.6768 125.106304,50.4072 239.251994,139.173303 321.178954,249.766803 42.4011,57.2374 74.81823,116.7981 99.25857,182.3699 19.9974,53.6518 37.80603,133.0082 43.0043,191.6301 0.85349,9.625 1.81062,19.8625 2.12694,22.75 l 0.57514,5.25 h 205.92805 205.92804 v -278.5 -278.5 H 1048 1151 v 278.5 278.5 l 143.75,-0.016 c 132.5574,-0.015 212.5863,-0.9947 226.25,-2.7693 l 5.5,-0.7143 4.1602,-32.7486 c 5.9831,-47.0993 10.3867,-71.9652 18.462,-104.2514 29.3399,-117.3041 83.6975,-221.4457 162.8511,-312 16.1891,-18.5209 53.7967,-55.6761 72.2751,-71.4057 38.1279,-32.4561 74.5446,-58.223903 115.603,-81.798203 47.3611,-27.1933 118.7373,-58.3645 156.3986,-68.302 L 2067,0.34636697 V 36.700267 c 0,33.7649 -0.1246,36.3895 -1.75,36.8554 -0.9625,0.2758 -6.6531,1.4536 -12.6458,2.6172 -34.1409,6.6292 -88.6444,31.527403 -124.8108,57.016003 -83.5705,58.8969 -144.8383,158.3936 -173.2036,281.2761 -8.7994,38.1206 -12.9493,88.3583 -12.9873,157.2239 -0.026,46.9298 0.7845,60.9029 5.4297,93.6182 20.3372,143.2327 78.8149,288.14 164.3846,407.34423 26.7943,37.3262 60.7797,76.6736 100.3235,116.1519 18.6285,18.5976 28.6757,27.512 44.9607,39.8914 l 9.2009,6.9943 0.2406,42.5 c 0.3273,57.8307 -0.1136,143.4599 -0.768,149.1503 l -0.5347,4.6502 -6.96,-1.9696 c -21.301,-6.028 -93.9981,-35.3603 -120.2491,-48.5189 -165.8821,-83.1503 -300.2799,-232.8591 -365.053,-406.64113 -19.4829,-52.2714 -31.111,-100.2547 -39.2392,-161.9209 l -3.7896,-28.75 H 1340.2745 1151 l 0.025,89.75 c 0.033,118.3264 1.8424,670.45203 2.1978,670.80303 0.1523,0.1504 14.395,3.4966 31.6505,7.4359 89.0743,20.3352 154.4858,46.1604 227.6264,89.8696 101.6737,60.7608 190.2924,149.0216 253.1637,252.1415 76.3825,125.2806 114.9119,276.8109 107.3012,422 -7.1241,135.9077 -48.5237,261.4647 -123.5557,374.7211 -84.4437,127.4627 -203.722,224.3504 -346.1477,281.1697 -69.2885,27.642 -150.3156,45.9644 -221.2615,50.0331 -25.5993,1.4682 -76.7129,2.0231 -98.00002,1.0641 z m 189.09701,-93.9797 c 24.2255,-1.0829 36.1126,-2.2178 52.903,-5.0511 41.9058,-7.0714 84.9804,-23.2435 124,-46.5551 24.622,-14.71 45.2068,-30.7819 68.1156,-53.1826 38.8965,-38.0337 61.4981,-70.7857 89.5921,-129.8286 28.0091,-58.8644 44.2177,-124.8314 50.4659,-205.3909 1.5809,-20.3829 1.5778,-84.1132 -0.01,-105 -5.8752,-77.5244 -19.991,-146.3425 -45.2284,-220.5 -63.1361,-185.5191 -187.7644,-350.3984 -336.6667,-445.3993 -74.647,-47.6255 -150.493,-75.8743 -230.28349,-85.7693 -20.61494,-2.5565 -70.68495,-2.5532 -90.49002,0.01 -87.39856,11.2934 -162.18684,48.3637 -222.53004,110.3015 -47.1797,48.4264 -79.60728,103.2098 -103.50428,174.8611 -16.65641,49.9415 -23.24262,79.5038 -26.51216,119 -1.65913,20.0423 -2.38174,127.5609 -1.07022,159.2409 1.51639,36.6289 3.06776,48.3053 11.72642,88.2591 21.08694,97.3019 56.75055,190.439 104.91877,274 98.36399,170.6394 247.84934,300.8013 402.47152,350.4452 41.859,13.4396 77.1184,19.6514 118.5,20.877 4.95,0.1466 9.675,0.3531 10.5,0.459 0.825,0.1058 11.2186,-0.242 23.097,-0.7729 z"
       id="path1" />
  </g>
</svg>
