<?xml version="1.0" encoding="UTF-8" standalone="no"?>
<!-- Created with Inkscape (http://www.inkscape.org/) -->

<svg
   version="1.1"
   id="svg1"
   width="1860"
   height="3024"
   viewBox="0 0 1860 3024"
   sodipodi:docname="Venus_noir.svg"
   inkscape:version="1.4.2 (f4327f4, 2025-05-13)"
   xmlns:inkscape="http://www.inkscape.org/namespaces/inkscape"
   xmlns:sodipodi="http://sodipodi.sourceforge.net/DTD/sodipodi-0.dtd"
   xmlns="http://www.w3.org/2000/svg"
   xmlns:svg="http://www.w3.org/2000/svg">
  <defs
     id="defs1" />
  <sodipodi:namedview
     id="namedview1"
     pagecolor="#ffffff"
     bordercolor="#000000"
     borderopacity="0.25"
     inkscape:showpageshadow="2"
     inkscape:pageopacity="0.0"
     inkscape:pagecheckerboard="0"
     inkscape:deskcolor="#d1d1d1"
     inkscape:zoom="0.13839286"
     inkscape:cx="1235.6129"
     inkscape:cy="2315.871"
     inkscape:window-width="1920"
     inkscape:window-height="1017"
     inkscape:window-x="-8"
     inkscape:window-y="-8"
     inkscape:window-maximized="1"
     inkscape:current-layer="g1" />
  <g
     inkscape:groupmode="layer"
     inkscape:label="Image"
     id="g1">
    <path
       style="fill:#000000"
       d="m 826.00012,2765.2327 v -258.5 h -228.5 -228.5 v -60.9978 -60.9979 l 228.25,-0.2521 228.25,-0.2522 0.5873,-133.5 c 0.32301,-73.425 0.77301,-192.2227 1,-263.9949 l 0.4127,-130.495 -17,-2.2274 c -27.35786,-3.5845 -49.7803,-7.1622 -68.26141,-10.8917 C 605.34794,1815.499 461.21607,1747.7472 349.00012,1658.2746 284.48276,1606.8334 222.15583,1541.5237 174.79492,1475.7327 103.6226,1376.8643 53.821744,1267.8039 24.080795,1145.6795 7.5661851,1077.866 3.2139771,1043.0333 1.0250911,961.1544 -0.36530992,909.1442 1.5068881,847.9143 5.5785991,812.2327 11.321313,761.9076 27.761381,691.9559 47.529748,633.7327 135.02427,376.0373 330.1635,169.1911 582.00012,67.1979 780.85292,-13.337 1004.8249,-21.4635 1213.6018,44.2812 c 121.7208,38.3304 235.3297,103.3455 334.4823,191.4145 76.0203,67.5225 139.1016,145.3507 190.9077,235.537 11.9312,20.7704 35.4762,68.1143 45.256,91 32.6956,76.5109 55.3671,156.4102 66.6814,235 9.7763,67.9071 11.3783,181.0692 3.4613,244.5 -6.1298,49.1113 -20.1937,113.4112 -35.8672,163.9839 -32.0717,103.4835 -80.9882,199.2661 -145.6247,285.145 -26.4865,35.1912 -50.2019,62.2782 -84.8482,96.9111 -47.3301,47.3118 -90.8251,83.0639 -145.6965,119.7601 -94.0317,62.8853 -221.5201,114.9771 -337.9696,138.0946 -12.6252,2.5063 -23.8573,4.317 -47.1409,7.5994 -22.2308,3.134 -23.1312,3.405 -19.6869,5.9235 2.3209,1.6971 3.4196,8.1147 4.4484,25.9833 0.9056,15.7279 2.8566,265.1802 3.2818,419.5991 l 0.2134,77.5 205.5,0.7489 c 113.025,0.4119 212.8125,1.0223 221.75,1.3565 l 16.25,0.6075 v 60.8913 60.8914 l -222.75,0.2522 -222.75,0.2522 -0.2519,258.25 -0.2519,258.25 H 934.49821 826.00012 Z M 1149.0001,1740.8082 c 81.6155,-11.1046 153.825,-40.014 217,-86.8772 35.8014,-26.5574 72.6191,-63.228 100.7687,-100.3661 62.4538,-82.3959 102.6039,-187.6881 119.6708,-313.8322 8.2497,-60.9752 8.0434,-156.1519 -0.504,-232.5 -2.9181,-26.0646 -5.3756,-41.545 -11.4913,-72.3862 C 1548.2862,802.9334 1499.919,677.5277 1430.7323,562.2327 1365.6356,453.7533 1282.2174,357.3911 1187.5001,281.2579 1094.3711,206.4014 996.13136,156.8838 890.00012,131.3034 c -40.83528,-9.8424 -43.5896,-10.0707 -121.5,-10.0707 -74.565,0 -75.84415,0.087 -104,7.087 -56.45002,14.0341 -110.53616,37.7551 -156.41936,68.602 -39.80824,26.7628 -78.68043,63.1938 -109.16656,102.311 -115.23511,147.8596 -159.16145,368.9343 -119.41543,601 28.94051,168.9754 99.05397,335.4463 201.32185,478 51.39576,71.6418 111.93777,137.0639 177.1795,191.4613 15.33463,12.7857 45.92992,35.9459 63,47.69 104.02385,71.5681 217.89722,115.256 323.99998,124.3037 6.875,0.5862 14.075,1.2406 16,1.4542 1.925,0.2136 19.025,0.2504 38,0.082 28.2727,-0.2512 37.2978,-0.6872 50,-2.4154 z"
       id="path1" />
  </g>
</svg>
