<?xml version="1.0" encoding="UTF-8" standalone="no"?>
<svg
   version="1.0"
   width="1000pt"
   height="1000pt"
   viewBox="0 0 1000 1000"
   preserveAspectRatio="xMidYMid"
   id="svg2"
   sodipodi:docname="Balance.svg"
   inkscape:version="1.4.2 (f4327f4, 2025-05-13)"
   xmlns:inkscape="http://www.inkscape.org/namespaces/inkscape"
   xmlns:sodipodi="http://sodipodi.sourceforge.net/DTD/sodipodi-0.dtd"
   xmlns="http://www.w3.org/2000/svg"
   xmlns:svg="http://www.w3.org/2000/svg">
  <defs
     id="defs2" />
  <sodipodi:namedview
     id="namedview2"
     pagecolor="#ffffff"
     bordercolor="#000000"
     borderopacity="0.25"
     inkscape:showpageshadow="2"
     inkscape:pageopacity="0.0"
     inkscape:pagecheckerboard="0"
     inkscape:deskcolor="#d1d1d1"
     inkscape:document-units="pt"
     inkscape:zoom="0.57179607"
     inkscape:cx="853.45112"
     inkscape:cy="712.66667"
     inkscape:window-width="1920"
     inkscape:window-height="1017"
     inkscape:window-x="-8"
     inkscape:window-y="-8"
     inkscape:window-maximized="1"
     inkscape:current-layer="svg2" />
  <metadata
     id="metadata1">
Created by potrace 1.15, written by Peter Selinger 2001-2017
</metadata>
  <g
     transform="matrix(0.0625,0,0,-0.0625,100,834.02469)"
     fill="#000000"
     stroke="none"
     id="g2">
    <path
       d="m 6105,10679 c -886,-68 -1632,-394 -2295,-1001 -238,-218 -468,-481 -628,-719 -333,-497 -513,-993 -584,-1614 -17,-145 -16,-592 0,-715 36,-265 90,-483 172,-700 142,-377 397,-776 697,-1091 40,-42 73,-79 73,-83 0,-3 -796,-6 -1770,-6 H 0 v -595 -595 h 2530 2530 v 554 554 l -127,90 c -424,302 -726,645 -914,1037 -173,362 -242,679 -242,1120 -1,664 212,1203 676,1714 462,509 1051,805 1710,860 696,59 1323,-127 1860,-551 121,-96 365,-338 461,-458 226,-283 390,-609 472,-940 51,-206 65,-321 71,-570 11,-457 -62,-805 -247,-1185 -190,-388 -490,-726 -911,-1026 l -129,-91 v -554 -554 h 2530 2530 v 595 595 H 11029 9259 l 93,103 c 167,183 277,324 395,507 251,390 394,781 458,1253 26,193 21,594 -10,842 -101,788 -452,1483 -1050,2080 -644,643 -1372,1013 -2206,1120 -267,34 -589,43 -834,24 z"
       id="path1" />
    <path
       d="M 0,590 V 0 h 6400 6400 v 590 590 H 6400 0 Z"
       id="path2" />
  </g>
</svg>
