<?xml version="1.0" encoding="UTF-8" standalone="no"?>
<svg
   version="1.0"
   width="1000pt"
   height="1000pt"
   viewBox="0 0 1000 1000"
   preserveAspectRatio="xMidYMid"
   id="svg1"
   sodipodi:docname="36388.svg"
   inkscape:version="1.4.2 (f4327f4, 2025-05-13)"
   xmlns:inkscape="http://www.inkscape.org/namespaces/inkscape"
   xmlns:sodipodi="http://sodipodi.sourceforge.net/DTD/sodipodi-0.dtd"
   xmlns="http://www.w3.org/2000/svg"
   xmlns:svg="http://www.w3.org/2000/svg">
  <defs
     id="defs1" />
  <sodipodi:namedview
     id="namedview1"
     pagecolor="#ffffff"
     bordercolor="#000000"
     borderopacity="0.25"
     inkscape:showpageshadow="2"
     inkscape:pageopacity="0.0"
     inkscape:pagecheckerboard="0"
     inkscape:deskcolor="#d1d1d1"
     inkscape:document-units="pt"
     inkscape:zoom="0.50308642"
     inkscape:cx="853.73006"
     inkscape:cy="810"
     inkscape:window-width="1920"
     inkscape:window-height="1017"
     inkscape:window-x="-8"
     inkscape:window-y="-8"
     inkscape:window-maximized="1"
     inkscape:current-layer="svg1" />
  <metadata
     id="metadata1">
Created by potrace 1.15, written by Peter Selinger 2001-2017
</metadata>
  <g
     transform="matrix(0.06253222,0,0,-0.06253222,99.922186,879.75958)"
     fill="#000000"
     stroke="none"
     id="g1">
    <path
       d="M 2025,12139 C 1382,12069 835,11723 448,11140 134,10667 -17,10093 3,9445 24,8786 208,8139 588,7398 l 95,-188 h 475 474 l -25,43 c -328,560 -528,1077 -616,1587 -39,231 -46,319 -45,615 0,319 14,450 73,686 142,570 498,990 937,1105 123,33 332,43 463,24 174,-25 383,-111 553,-226 299,-204 606,-553 883,-1005 318,-519 655,-1260 916,-2014 411,-1184 777,-2926 989,-4705 121,-1022 170,-1822 170,-2786 V 0 h 470 470 v 393 c 0,1206 80,2328 256,3587 243,1743 604,3328 1002,4401 342,920 736,1685 1130,2194 116,149 401,432 522,517 185,130 382,218 575,254 131,24 355,15 487,-19 329,-86 600,-323 783,-686 100,-200 162,-408 207,-693 19,-124 22,-183 22,-438 0,-316 -10,-430 -60,-680 -97,-487 -304,-1034 -579,-1531 -25,-45 -45,-83 -45,-85 0,-2 214,-3 477,-2 l 476,3 98,195 c 316,629 494,1194 561,1780 19,167 16,610 -5,779 -80,636 -316,1139 -732,1557 -294,295 -624,483 -1004,568 -181,41 -275,51 -496,51 -233,-1 -357,-15 -551,-65 -312,-81 -645,-252 -924,-476 -206,-166 -488,-466 -675,-718 C 7474,9639 6843,7734 6575,5385 c -36,-317 -94,-956 -95,-1037 0,-5 -36,-8 -80,-8 -44,0 -80,2 -80,4 0,2 -9,105 -20,227 -152,1693 -436,3103 -862,4289 -412,1145 -971,2085 -1557,2617 -401,364 -824,577 -1286,648 -131,20 -443,28 -570,14 z"
       id="path1" />
  </g>
</svg>
