<?xml version="1.0" encoding="UTF-8" standalone="no"?>
<svg
   version="1.0"
   width="1000pt"
   height="1000pt"
   viewBox="0 0 1000 1000"
   preserveAspectRatio="xMidYMid"
   id="svg2"
   sodipodi:docname="Cancer.svg"
   inkscape:version="1.4.2 (f4327f4, 2025-05-13)"
   xmlns:inkscape="http://www.inkscape.org/namespaces/inkscape"
   xmlns:sodipodi="http://sodipodi.sourceforge.net/DTD/sodipodi-0.dtd"
   xmlns="http://www.w3.org/2000/svg"
   xmlns:svg="http://www.w3.org/2000/svg">
  <defs
     id="defs2" />
  <sodipodi:namedview
     id="namedview2"
     pagecolor="#ffffff"
     bordercolor="#000000"
     borderopacity="0.25"
     inkscape:showpageshadow="2"
     inkscape:pageopacity="0.0"
     inkscape:pagecheckerboard="0"
     inkscape:deskcolor="#d1d1d1"
     inkscape:document-units="pt"
     inkscape:zoom="0.61002994"
     inkscape:cx="854.87607"
     inkscape:cy="668"
     inkscape:window-width="1920"
     inkscape:window-height="1017"
     inkscape:window-x="-8"
     inkscape:window-y="-8"
     inkscape:window-maximized="1"
     inkscape:current-layer="svg2" />
  <metadata
     id="metadata1">
Created by potrace 1.15, written by Peter Selinger 2001-2017
</metadata>
  <g
     transform="matrix(0.0625085,0,0,-0.0625085,99.891222,813.16001)"
     fill="#000000"
     stroke="none"
     id="g2">
    <path
       d="m 6675,10013 c -302,-9 -819,-45 -1125,-78 C 3896,9751 2507,9280 1440,8539 619,7969 151,7294 28,6505 2,6338 -3,5959 18,5800 101,5183 378,4658 844,4237 c 505,-456 1068,-662 1761,-644 222,6 343,20 532,63 620,139 1201,556 1577,1131 191,292 315,632 368,1003 20,146 17,603 -5,755 -60,403 -176,710 -384,1022 -242,362 -567,641 -1058,908 l -69,38 44,19 c 142,61 454,162 680,222 967,255 2374,330 3685,195 1478,-151 3027,-577 4570,-1257 94,-41 189,-83 213,-93 l 42,-18 v 543 544 l -227,100 c -1924,849 -3731,1261 -5477,1250 -177,-1 -366,-3 -421,-5 z M 2868,7986 c 388,-73 703,-235 985,-505 323,-310 504,-657 563,-1078 22,-161 15,-461 -15,-621 -25,-132 -83,-313 -138,-432 -142,-305 -411,-609 -718,-810 -174,-113 -417,-209 -637,-251 -142,-27 -453,-37 -596,-19 -291,35 -543,126 -772,277 -125,83 -167,117 -284,231 -216,211 -359,422 -460,678 -140,356 -164,829 -60,1214 156,576 631,1073 1199,1253 118,38 182,52 315,73 117,18 505,12 618,-10 z"
       id="path1" />
    <path
       d="M 10064,6420 C 9439,6378 8872,6111 8424,5648 7894,5101 7654,4460 7699,3716 c 34,-566 192,-1006 504,-1404 103,-132 271,-302 407,-412 129,-105 371,-267 508,-340 56,-29 99,-57 94,-61 -25,-23 -379,-144 -608,-208 C 7620,1015 6159,930 4815,1071 3304,1228 1770,1652 214,2341 103,2390 9,2430 6,2430 3,2430 1,2186 2,1888 l 3,-542 165,-74 C 1741,569 3289,152 4765,36 c 763,-61 1688,-40 2530,55 1512,171 2818,594 3857,1250 316,200 572,402 808,639 584,584 863,1251 836,2000 -24,686 -280,1256 -784,1742 -442,425 -961,656 -1569,698 -163,11 -214,11 -379,0 z m 382,-671 c 350,-35 666,-158 929,-364 419,-327 672,-764 735,-1270 17,-133 14,-411 -5,-540 -82,-562 -395,-1023 -899,-1325 -504,-302 -1208,-330 -1754,-70 -201,96 -379,228 -557,411 -304,315 -464,644 -516,1062 -15,124 -7,441 15,555 71,383 222,679 489,958 123,129 218,209 359,301 340,223 774,325 1204,282 z"
       id="path2" />
  </g>
</svg>
