<?xml version="1.0" encoding="UTF-8" standalone="no"?>
<svg
   version="1.0"
   width="1000pt"
   height="1000pt"
   viewBox="0 0 1000 1000"
   preserveAspectRatio="xMidYMid"
   id="svg1"
   sodipodi:docname="Capricorne.svg"
   inkscape:version="1.4.2 (f4327f4, 2025-05-13)"
   xmlns:inkscape="http://www.inkscape.org/namespaces/inkscape"
   xmlns:sodipodi="http://sodipodi.sourceforge.net/DTD/sodipodi-0.dtd"
   xmlns="http://www.w3.org/2000/svg"
   xmlns:svg="http://www.w3.org/2000/svg">
  <defs
     id="defs1" />
  <sodipodi:namedview
     id="namedview1"
     pagecolor="#ffffff"
     bordercolor="#000000"
     borderopacity="0.25"
     inkscape:showpageshadow="2"
     inkscape:pageopacity="0.0"
     inkscape:pagecheckerboard="0"
     inkscape:deskcolor="#d1d1d1"
     inkscape:document-units="pt"
     inkscape:zoom="0.50061425"
     inkscape:cx="852.95215"
     inkscape:cy="814"
     inkscape:window-width="1920"
     inkscape:window-height="1017"
     inkscape:window-x="-8"
     inkscape:window-y="-8"
     inkscape:window-maximized="1"
     inkscape:current-layer="svg1" />
  <metadata
     id="metadata1">
Created by potrace 1.15, written by Peter Selinger 2001-2017
</metadata>
  <g
     transform="matrix(0.06252408,0,0,-0.06252408,99.999969,881.61598)"
     fill="#000000"
     stroke="none"
     id="g1">
    <path
       d="m 5765,12114 c -264,-51 -555,-108 -647,-125 l -167,-32 -89,-111 C 4050,10838 3465,9565 3100,8007 c -18,-76 -34,-137 -35,-135 -2,2 -22,107 -45,233 -202,1119 -426,2019 -655,2630 -70,185 -170,412 -223,501 -258,441 -656,671 -1232,714 -74,5 -309,10 -522,10 H 0 v -410 -410 h 130 c 455,0 782,-119 1048,-383 246,-242 376,-502 552,-1097 239,-815 537,-2362 649,-3380 42,-382 54,-561 60,-945 l 6,-390 h 495 495 l 6,480 c 9,655 44,985 165,1568 239,1146 761,2501 1322,3437 151,250 430,648 565,805 l 34,39 21,-39 c 37,-74 120,-311 172,-489 136,-472 254,-1079 359,-1841 46,-334 242,-1806 316,-2373 111,-857 174,-1251 241,-1499 55,-205 178,-494 340,-796 l 96,-179 -62,-181 C 6587,2650 6193,1776 5898,1413 5681,1146 5345,977 4860,890 4630,849 4487,839 4068,833 l -408,-6 V 413 -2 l 643,5 c 498,3 674,8 787,21 604,67 1011,214 1331,483 364,305 764,1022 1260,2256 70,176 130,322 134,325 3,3 54,-42 113,-100 556,-547 1215,-873 1962,-969 166,-22 665,-19 805,4 534,89 947,299 1329,675 421,415 658,878 748,1467 26,169 31,571 10,720 -68,483 -229,850 -528,1205 -219,260 -509,491 -804,640 -367,184 -730,259 -1199,247 -385,-10 -697,-80 -1027,-229 -583,-264 -1111,-799 -1495,-1515 -24,-46 -46,-83 -49,-83 -9,0 -87,298 -125,475 -66,310 -112,614 -195,1295 -60,491 -161,1185 -330,2275 -144,927 -321,1738 -512,2340 -100,317 -239,676 -261,674 -7,-1 -228,-43 -492,-95 z m 4750,-5894 c 385,-43 684,-187 955,-459 264,-266 409,-540 476,-901 25,-132 25,-492 1,-635 -64,-370 -192,-643 -426,-911 -341,-391 -827,-594 -1366,-571 -467,20 -910,187 -1370,516 -202,144 -472,383 -649,575 l -99,107 43,112 c 153,403 348,798 537,1087 272,415 572,706 914,889 293,156 659,227 984,191 z"
       id="path1" />
  </g>
</svg>
