<?xml version="1.0" encoding="UTF-8" standalone="no"?>
<svg
   version="1.0"
   width="1000pt"
   height="1000pt"
   viewBox="0 0 1000 1000"
   preserveAspectRatio="xMidYMid"
   id="svg1"
   sodipodi:docname="Gémeaux.svg"
   inkscape:version="1.4.2 (f4327f4, 2025-05-13)"
   xmlns:inkscape="http://www.inkscape.org/namespaces/inkscape"
   xmlns:sodipodi="http://sodipodi.sourceforge.net/DTD/sodipodi-0.dtd"
   xmlns="http://www.w3.org/2000/svg"
   xmlns:svg="http://www.w3.org/2000/svg">
  <defs
     id="defs1" />
  <sodipodi:namedview
     id="namedview1"
     pagecolor="#ffffff"
     bordercolor="#000000"
     borderopacity="0.25"
     inkscape:showpageshadow="2"
     inkscape:pageopacity="0.0"
     inkscape:pagecheckerboard="0"
     inkscape:deskcolor="#d1d1d1"
     inkscape:document-units="pt"
     inkscape:zoom="0.47753906"
     inkscape:cx="830.29857"
     inkscape:cy="853.33333"
     inkscape:window-width="1920"
     inkscape:window-height="1017"
     inkscape:window-x="-8"
     inkscape:window-y="-8"
     inkscape:window-maximized="1"
     inkscape:current-layer="svg1" />
  <metadata
     id="metadata1">
Created by potrace 1.15, written by Peter Selinger 2001-2017
</metadata>
  <g
     transform="matrix(0.06253438,0,0,-0.06253438,110.41081,900.21941)"
     fill="#000000"
     stroke="none"
     id="g1">
    <path
       d="m 0,12326 v -475 l 43,-11 c 23,-6 87,-24 142,-40 743,-213 1767,-409 2530,-485 88,-9 170,-18 183,-21 l 22,-4 V 6406 1523 l -62,-7 c -35,-4 -173,-23 -308,-42 C 1875,1378 1144,1231 353,1032 L 5,945 2,472 C 0,24 1,-1 17,4 c 31,9 413,104 528,131 1345,316 2721,506 4235,585 666,34 1829,45 2415,21 1540,-62 2732,-197 4035,-457 373,-75 1048,-230 1213,-280 16,-5 17,20 15,468 l -3,472 -285,72 c -929,234 -1669,379 -2545,497 l -90,12 -3,4882 -2,4882 32,5 c 18,3 101,13 183,21 780,81 1737,264 2510,480 66,18 139,38 163,45 l 42,11 v 475 c 0,448 -1,475 -17,470 -138,-41 -530,-138 -818,-201 -1655,-361 -3681,-530 -5944,-494 -2043,31 -3730,219 -5231,583 -157,38 -369,93 -432,112 -17,5 -18,-22 -18,-470 z m 4485,-1136 c 454,-25 934,-34 1740,-34 935,0 1283,8 2053,50 l 122,7 V 6401 1588 l -27,6 c -88,18 -705,65 -1163,88 -324,16 -1645,16 -1965,0 -338,-18 -684,-40 -860,-57 -202,-20 -308,-30 -318,-30 -4,0 -8,2164 -10,4809 l -2,4809 130,-7 c 72,-4 207,-11 300,-16 z"
       id="path1" />
  </g>
</svg>
