<?xml version="1.0" encoding="UTF-8" standalone="no"?>
<svg
   version="1.0"
   width="1000pt"
   height="1000pt"
   viewBox="0 0 1000 1000"
   preserveAspectRatio="xMidYMid"
   id="svg1"
   sodipodi:docname="Lion.svg"
   inkscape:version="1.4.2 (f4327f4, 2025-05-13)"
   xmlns:inkscape="http://www.inkscape.org/namespaces/inkscape"
   xmlns:sodipodi="http://sodipodi.sourceforge.net/DTD/sodipodi-0.dtd"
   xmlns="http://www.w3.org/2000/svg"
   xmlns:svg="http://www.w3.org/2000/svg">
  <defs
     id="defs1" />
  <sodipodi:namedview
     id="namedview1"
     pagecolor="#ffffff"
     bordercolor="#000000"
     borderopacity="0.25"
     inkscape:showpageshadow="2"
     inkscape:pageopacity="0.0"
     inkscape:pagecheckerboard="0"
     inkscape:deskcolor="#d1d1d1"
     inkscape:document-units="pt"
     inkscape:zoom="0.47753906"
     inkscape:cx="666.96115"
     inkscape:cy="853.33333"
     inkscape:window-width="1920"
     inkscape:window-height="1017"
     inkscape:window-x="-8"
     inkscape:window-y="-8"
     inkscape:window-maximized="1"
     inkscape:current-layer="svg1" />
  <metadata
     id="metadata1">
Created by potrace 1.15, written by Peter Selinger 2001-2017
</metadata>
  <g
     transform="matrix(0.06251941,0,0,-0.06251941,187.3665,900.05855)"
     fill="#000000"
     stroke="none"
     id="g1">
    <path
       d="m 5555,12794 c -689,-45 -1303,-253 -1795,-607 -642,-462 -1054,-1078 -1199,-1792 -45,-220 -55,-339 -56,-625 0,-279 7,-369 46,-600 79,-468 281,-1046 560,-1601 33,-67 59,-123 57,-125 -2,-1 -53,10 -113,27 -281,76 -550,105 -807,89 C 1752,7528 1329,7365 940,7054 830,6966 613,6749 527,6640 157,6176 -19,5637 3,5035 c 14,-377 89,-690 237,-993 119,-244 252,-433 450,-636 196,-202 348,-322 560,-444 534,-306 1221,-388 1859,-222 792,207 1528,940 1726,1720 139,547 89,961 -209,1714 -114,289 -185,446 -451,1001 -95,198 -201,423 -235,500 -275,621 -439,1192 -490,1700 -17,163 -14,507 5,658 83,676 396,1212 915,1569 441,303 987,441 1618,408 598,-32 1067,-203 1472,-539 123,-102 267,-253 364,-381 279,-370 432,-773 498,-1315 19,-157 16,-614 -5,-760 C 8263,8650 8181,8323 8045,7935 7899,7519 7793,7277 7300,6225 6914,5401 6803,5159 6655,4815 6217,3797 5964,3003 5873,2370 c -26,-189 -24,-573 5,-733 78,-428 273,-788 586,-1084 339,-321 748,-501 1236,-544 515,-45 1029,98 1576,438 194,120 480,340 671,513 l 53,48 -275,301 -276,301 -87,-76 C 8987,1209 8585,979 8250,896 c -266,-65 -540,-50 -768,42 -285,117 -534,391 -635,703 -53,160 -62,230 -62,449 1,184 4,218 28,335 79,372 218,791 472,1425 230,571 326,787 1110,2505 714,1563 831,1937 876,2785 18,346 -1,707 -55,1021 -171,1004 -756,1808 -1641,2255 -383,193 -773,304 -1265,359 -139,15 -621,28 -755,19 z M 2555,6859 c 378,-32 677,-155 967,-398 306,-256 506,-607 585,-1026 20,-110 28,-418 14,-541 -52,-443 -246,-813 -581,-1111 -289,-257 -608,-394 -988,-422 -370,-29 -725,54 -1030,240 -259,159 -516,446 -651,729 -164,345 -214,768 -135,1160 119,592 572,1105 1144,1294 214,71 439,96 675,75 z"
       id="path1" />
  </g>
</svg>
