<?xml version="1.0" encoding="UTF-8" standalone="no"?>
<svg
   version="1.0"
   width="1000pt"
   height="1000pt"
   viewBox="0 0 1000 1000"
   preserveAspectRatio="xMidYMid"
   id="svg1"
   sodipodi:docname="Poissons.svg"
   inkscape:version="1.4.2 (f4327f4, 2025-05-13)"
   xmlns:inkscape="http://www.inkscape.org/namespaces/inkscape"
   xmlns:sodipodi="http://sodipodi.sourceforge.net/DTD/sodipodi-0.dtd"
   xmlns="http://www.w3.org/2000/svg"
   xmlns:svg="http://www.w3.org/2000/svg">
  <defs
     id="defs1" />
  <sodipodi:namedview
     id="namedview1"
     pagecolor="#ffffff"
     bordercolor="#000000"
     borderopacity="0.25"
     inkscape:showpageshadow="2"
     inkscape:pageopacity="0.0"
     inkscape:pagecheckerboard="0"
     inkscape:deskcolor="#d1d1d1"
     inkscape:document-units="pt"
     inkscape:zoom="0.47753906"
     inkscape:cx="687.90184"
     inkscape:cy="853.33333"
     inkscape:window-width="1920"
     inkscape:window-height="1017"
     inkscape:window-x="-8"
     inkscape:window-y="-8"
     inkscape:window-maximized="1"
     inkscape:current-layer="svg1" />
  <metadata
     id="metadata1">
Created by potrace 1.15, written by Peter Selinger 2001-2017
</metadata>
  <g
     transform="matrix(0.0625,0,0,-0.0625,177.8125,900)"
     fill="#000000"
     stroke="none"
     id="g1">
    <path
       d="m 87,12703 c 50,-54 150,-168 223,-253 1188,-1387 1927,-2795 2230,-4250 65,-311 119,-702 136,-972 l 7,-118 H 1386 90 v -455 -455 h 1297 1296 l -6,-252 C 2633,4202 2008,2515 836,980 596,666 279,293 61,68 L -4,0 h 667 667 l 96,112 c 1269,1481 2187,3466 2414,5218 26,205 47,463 56,688 l 7,182 h 1252 1252 l 7,-182 C 6450,5084 6657,4155 7052,3165 7492,2061 8089,1062 8842,169 L 8984,0 h 665 665 l -65,68 C 10031,293 9714,666 9474,980 8302,2515 7677,4202 7633,5948 l -6,252 h 1296 1297 v 455 455 H 8924 7627 l 7,118 c 17,270 71,661 136,972 303,1455 1042,2863 2230,4250 73,85 173,199 223,253 l 89,97 h -629 -630 l -80,-87 C 7720,11342 6917,9799 6561,8077 c -51,-245 -115,-646 -136,-852 -3,-33 -9,-72 -11,-87 l -6,-28 H 5155 3901 l -5,33 c -3,17 -15,111 -26,207 -238,1973 -1100,3801 -2528,5358 l -84,92 H 628 -2 Z"
       id="path1" />
  </g>
</svg>
