<?xml version="1.0" encoding="UTF-8" standalone="no"?>
<svg
   version="1.0"
   width="1000pt"
   height="1000pt"
   viewBox="0 0 1000 1000"
   preserveAspectRatio="xMidYMid"
   id="svg1"
   sodipodi:docname="Sagittaire.svg"
   inkscape:version="1.4.2 (f4327f4, 2025-05-13)"
   xmlns:inkscape="http://www.inkscape.org/namespaces/inkscape"
   xmlns:sodipodi="http://sodipodi.sourceforge.net/DTD/sodipodi-0.dtd"
   xmlns="http://www.w3.org/2000/svg"
   xmlns:svg="http://www.w3.org/2000/svg">
  <defs
     id="defs1" />
  <sodipodi:namedview
     id="namedview1"
     pagecolor="#ffffff"
     bordercolor="#000000"
     borderopacity="0.25"
     inkscape:showpageshadow="2"
     inkscape:pageopacity="0.0"
     inkscape:pagecheckerboard="0"
     inkscape:deskcolor="#d1d1d1"
     inkscape:document-units="pt"
     inkscape:zoom="0.47753906"
     inkscape:cx="853.33333"
     inkscape:cy="853.33333"
     inkscape:window-width="1920"
     inkscape:window-height="1017"
     inkscape:window-x="-8"
     inkscape:window-y="-8"
     inkscape:window-maximized="1"
     inkscape:current-layer="svg1" />
  <metadata
     id="metadata1">
Created by potrace 1.15, written by Peter Selinger 2001-2017
</metadata>
  <g
     transform="matrix(0.0625,0,0,-0.0625,100.0919,900)"
     fill="#000000"
     stroke="none"
     id="g1">
    <path
       d="m 5955,12768 c -11,-66 -173,-1114 -177,-1143 -3,-26 1,-30 22,-33 47,-6 3535,-494 4015,-562 153,-22 290,-40 302,-40 13,0 23,-3 23,-7 0,-5 -1236,-1242 -2747,-2750 L 4645,5492 3354,6782 2062,8073 1693,7699 c -203,-206 -393,-400 -423,-432 l -54,-58 440,-442 c 241,-243 820,-825 1286,-1292 L 3790,4625 1895,2730 0,835 417,418 835,0 1200,363 c 201,200 1055,1050 1899,1890 l 1534,1526 1290,-1295 1291,-1295 430,430 431,431 -1289,1289 c -709,709 -1287,1293 -1285,1299 2,6 1001,1011 2219,2234 1218,1222 2448,2458 2735,2746 416,418 521,519 527,505 4,-10 16,-88 28,-173 11,-85 47,-344 80,-575 33,-231 105,-742 160,-1135 55,-393 109,-776 120,-850 66,-455 220,-1560 220,-1576 0,-43 13,-48 92,-36 40,7 246,39 458,72 467,73 654,103 657,105 2,1 -47,354 -107,786 -61,431 -140,993 -175,1249 -36,256 -70,494 -75,530 -5,36 -41,292 -80,570 -39,278 -75,534 -80,570 -5,36 -41,292 -80,570 -39,278 -75,534 -80,570 -5,36 -41,292 -80,570 -39,278 -73,524 -76,547 -7,49 14,42 -244,78 -185,26 -1213,169 -2967,415 -511,71 -1252,175 -1648,230 -396,55 -814,114 -930,130 -115,17 -211,30 -212,30 -1,0 -5,-15 -8,-32 z"
       id="path1" />
  </g>
</svg>
