<?xml version="1.0" encoding="UTF-8" standalone="no"?>
<svg
   version="1.0"
   width="1000pt"
   height="1000pt"
   viewBox="0 0 1000 1000"
   preserveAspectRatio="xMidYMid"
   id="svg1"
   sodipodi:docname="Scorpion.svg"
   inkscape:version="1.4.2 (f4327f4, 2025-05-13)"
   xmlns:inkscape="http://www.inkscape.org/namespaces/inkscape"
   xmlns:sodipodi="http://sodipodi.sourceforge.net/DTD/sodipodi-0.dtd"
   xmlns="http://www.w3.org/2000/svg"
   xmlns:svg="http://www.w3.org/2000/svg">
  <defs
     id="defs1" />
  <sodipodi:namedview
     id="namedview1"
     pagecolor="#ffffff"
     bordercolor="#000000"
     borderopacity="0.25"
     inkscape:showpageshadow="2"
     inkscape:pageopacity="0.0"
     inkscape:pagecheckerboard="0"
     inkscape:deskcolor="#d1d1d1"
     inkscape:document-units="pt"
     inkscape:zoom="0.47753906"
     inkscape:cx="775.85276"
     inkscape:cy="853.33333"
     inkscape:window-width="1920"
     inkscape:window-height="1017"
     inkscape:window-x="-8"
     inkscape:window-y="-8"
     inkscape:window-maximized="1"
     inkscape:current-layer="svg1" />
  <metadata
     id="metadata1">
Created by potrace 1.15, written by Peter Selinger 2001-2017
</metadata>
  <g
     transform="matrix(0.06255371,0,0,-0.06255371,136.28145,900.62555)"
     fill="#000000"
     stroke="none"
     id="g1">
    <path
       d="m 3440,12705 c -250,-52 -460,-95 -466,-97 -26,-7 -278,-327 -416,-528 -252,-365 -505,-834 -689,-1274 -30,-71 -56,-121 -60,-114 -3,7 -14,54 -23,103 -56,289 -187,724 -306,1010 -80,194 -226,483 -333,660 l -85,140 -531,3 -531,2 81,-112 c 450,-625 693,-1419 739,-2413 6,-127 10,-1624 10,-3767 V 2760 h 490 490 v 3084 3084 l 54,184 c 309,1041 758,1909 1370,2646 101,121 112,131 124,115 37,-49 129,-260 177,-405 114,-348 177,-722 227,-1363 8,-110 12,-1115 15,-3747 l 4,-3598 h 489 490 v 2971 2971 l 46,186 c 252,1027 655,1912 1205,2649 92,122 278,353 284,353 10,0 110,-190 148,-281 142,-334 222,-727 268,-1324 9,-108 14,-1110 19,-3560 5,-1876 11,-3430 14,-3455 4,-25 14,-106 22,-180 46,-405 151,-786 296,-1074 97,-194 213,-350 365,-497 304,-291 692,-457 1258,-535 98,-14 236,-17 758,-21 l 637,-5 V 484 c 0,-261 3,-474 8,-474 12,0 1541,1334 1541,1345 -1,6 -348,324 -772,708 l -772,698 -3,-492 -2,-491 -478,5 c -428,4 -491,6 -615,26 -534,84 -859,272 -1061,614 -96,162 -147,323 -171,537 -38,351 -39,365 -45,4055 -7,3885 -3,3620 -56,3980 -87,603 -305,1165 -647,1673 -76,113 -93,133 -111,128 -11,-2 -230,-46 -486,-96 l -465,-92 -107,-137 c -470,-601 -816,-1200 -1034,-1791 l -39,-105 -7,40 c -4,22 -17,101 -28,175 -92,590 -260,1122 -481,1521 -104,190 -316,490 -343,488 -6,0 -216,-43 -466,-94 z"
       id="path1" />
  </g>
</svg>
