<?xml version="1.0" encoding="UTF-8" standalone="no"?>
<svg
   version="1.0"
   width="1000pt"
   height="1000pt"
   viewBox="0 0 1000 1000"
   preserveAspectRatio="xMidYMid"
   id="svg1"
   sodipodi:docname="Taureau.svg"
   inkscape:version="1.4.2 (f4327f4, 2025-05-13)"
   xmlns:inkscape="http://www.inkscape.org/namespaces/inkscape"
   xmlns:sodipodi="http://sodipodi.sourceforge.net/DTD/sodipodi-0.dtd"
   xmlns="http://www.w3.org/2000/svg"
   xmlns:svg="http://www.w3.org/2000/svg">
  <defs
     id="defs1" />
  <sodipodi:namedview
     id="namedview1"
     pagecolor="#ffffff"
     bordercolor="#000000"
     borderopacity="0.25"
     inkscape:showpageshadow="2"
     inkscape:pageopacity="0.0"
     inkscape:pagecheckerboard="0"
     inkscape:deskcolor="#d1d1d1"
     inkscape:document-units="pt"
     inkscape:zoom="0.47753906"
     inkscape:cx="815.64008"
     inkscape:cy="853.33333"
     inkscape:window-width="1920"
     inkscape:window-height="1017"
     inkscape:window-x="-8"
     inkscape:window-y="-8"
     inkscape:window-maximized="1"
     inkscape:current-layer="svg1" />
  <metadata
     id="metadata1">
Created by potrace 1.15, written by Peter Selinger 2001-2017
</metadata>
  <g
     transform="matrix(0.06251023,0,0,-0.06251023,117.12484,900.13092)"
     fill="#000000"
     stroke="none"
     id="g1">
    <path
       d="m 0,12425 v -375 h 154 c 179,0 287,-16 433,-65 357,-119 683,-391 994,-827 111,-155 216,-332 462,-774 258,-464 314,-563 415,-729 240,-394 482,-719 690,-923 248,-244 577,-458 947,-617 61,-26 114,-51 118,-55 5,-4 -22,-25 -60,-45 C 3727,7778 3282,7428 2951,7070 2322,6388 1944,5570 1850,4685 1822,4423 1827,4000 1861,3720 1970,2831 2367,2033 3045,1341 3807,562 4660,133 5660,25 c 315,-34 706,-30 1025,11 926,119 1739,527 2452,1231 643,635 1040,1353 1202,2171 35,177 60,390 71,615 45,915 -197,1771 -713,2520 -383,555 -882,1013 -1512,1389 -71,43 -137,82 -145,87 -12,7 -4,14 35,31 283,124 426,200 615,324 362,239 607,497 927,976 163,246 257,405 631,1076 228,409 288,511 400,672 326,470 686,763 1074,876 119,34 216,46 384,46 h 144 v 375 375 h -292 c -161,0 -335,-5 -386,-10 -705,-74 -1357,-558 -1949,-1446 -121,-181 -180,-280 -551,-919 -373,-645 -442,-755 -618,-990 -491,-658 -989,-970 -1725,-1080 -251,-37 -554,-51 -821,-36 -968,53 -1527,349 -2112,1118 -169,223 -294,424 -628,1013 -149,261 -300,525 -336,585 -651,1087 -1368,1672 -2153,1755 -52,5 -226,10 -386,10 H 0 Z M 6570,7455 c 700,-89 1297,-368 1794,-835 617,-581 938,-1205 1038,-2020 19,-157 16,-621 -6,-785 C 9306,3127 9038,2567 8554,2053 7870,1326 7020,974 6020,1003 c -811,24 -1479,284 -2077,810 -626,550 -985,1210 -1089,2002 -22,164 -25,628 -6,785 73,598 269,1096 606,1544 109,144 161,204 314,359 568,576 1245,894 2057,967 148,13 598,4 745,-15 z"
       id="path1" />
  </g>
</svg>
