<?xml version="1.0" encoding="UTF-8" standalone="no"?>
<svg
   version="1.0"
   width="1000pt"
   height="1000pt"
   viewBox="0 0 1000 1000"
   preserveAspectRatio="xMidYMid"
   id="svg2"
   sodipodi:docname="Verseau.svg"
   inkscape:version="1.4.2 (f4327f4, 2025-05-13)"
   xmlns:inkscape="http://www.inkscape.org/namespaces/inkscape"
   xmlns:sodipodi="http://sodipodi.sourceforge.net/DTD/sodipodi-0.dtd"
   xmlns="http://www.w3.org/2000/svg"
   xmlns:svg="http://www.w3.org/2000/svg">
  <defs
     id="defs2" />
  <sodipodi:namedview
     id="namedview2"
     pagecolor="#ffffff"
     bordercolor="#000000"
     borderopacity="0.25"
     inkscape:showpageshadow="2"
     inkscape:pageopacity="0.0"
     inkscape:pagecheckerboard="0"
     inkscape:deskcolor="#d1d1d1"
     inkscape:document-units="pt"
     inkscape:zoom="0.71158324"
     inkscape:cx="662.60695"
     inkscape:cy="685.09202"
     inkscape:window-width="1920"
     inkscape:window-height="1017"
     inkscape:window-x="-8"
     inkscape:window-y="-8"
     inkscape:window-maximized="1"
     inkscape:current-layer="svg2" />
  <metadata
     id="metadata1">
Created by potrace 1.15, written by Peter Selinger 2001-2017
</metadata>
  <g
     transform="matrix(0.06259325,0,0,-0.06259325,99.302537,768.86839)"
     fill="#000000"
     stroke="none"
     id="g2">
    <path
       d="M 1950,7319 C 891,6620 21,6044 16,6040 c -7,-7 419,-656 459,-698 10,-11 298,174 1515,972 826,542 1503,986 1505,986 1,0 188,-443 416,-985 228,-542 419,-983 424,-981 6,2 678,445 1494,985 816,540 1485,980 1486,979 2,-2 190,-443 418,-981 228,-538 417,-980 420,-983 2,-3 679,437 1503,976 824,540 1502,982 1507,983 9,2 163,-360 649,-1523 100,-239 183,-437 185,-439 3,-4 782,337 795,348 3,3 -86,222 -198,486 -341,799 -642,1506 -839,1970 -103,242 -189,443 -191,447 -3,4 -150,-89 -327,-205 C 8761,6744 8568,6617 8560,6630 c -4,7 -194,451 -421,986 -261,615 -416,971 -423,966 -6,-3 -677,-444 -1491,-980 -814,-536 -1485,-976 -1491,-979 -13,-5 34,-111 -446,1007 -225,525 -411,956 -412,957 -1,1 -868,-570 -1926,-1268 z"
       id="path1" />
    <path
       d="M 1945,1994 C 889,1298 19,726 12,721 3,716 64,616 236,357 464,13 474,0 494,13 c 419,277 2974,1951 2982,1954 7,2 40,-63 79,-154 C 4287,96 4323,11 4330,8 c 3,-2 672,437 1485,976 814,538 1485,980 1491,983 6,2 20,-18 31,-44 103,-241 322,-758 413,-973 62,-146 145,-341 185,-435 39,-93 105,-248 145,-343 71,-167 74,-172 94,-158 419,276 2974,1950 2982,1953 6,2 14,-2 17,-9 2,-7 88,-211 189,-453 102,-242 285,-680 408,-973 131,-313 228,-531 234,-528 138,59 779,346 783,350 3,3 -24,74 -60,158 -35,84 -156,367 -267,628 -111,261 -260,610 -330,775 -70,165 -205,482 -300,705 -232,545 -269,633 -274,637 -3,3 -2207,-1443 -2890,-1896 -60,-39 -110,-70 -112,-68 -2,1 -190,443 -418,981 -229,538 -417,981 -420,983 -2,2 -676,-439 -1497,-981 -822,-541 -1497,-981 -1501,-978 -3,4 -194,444 -423,977 -229,534 -419,973 -423,977 -4,4 -871,-562 -1927,-1258 z"
       id="path2" />
  </g>
</svg>
