<?xml version="1.0" encoding="UTF-8" standalone="no"?>
<svg
   version="1.0"
   width="1000pt"
   height="1000pt"
   viewBox="0 0 1000 1000"
   preserveAspectRatio="xMidYMid"
   id="svg1"
   sodipodi:docname="Vierge.svg"
   inkscape:version="1.4.2 (f4327f4, 2025-05-13)"
   xmlns:inkscape="http://www.inkscape.org/namespaces/inkscape"
   xmlns:sodipodi="http://sodipodi.sourceforge.net/DTD/sodipodi-0.dtd"
   xmlns="http://www.w3.org/2000/svg"
   xmlns:svg="http://www.w3.org/2000/svg">
  <defs
     id="defs1" />
  <sodipodi:namedview
     id="namedview1"
     pagecolor="#ffffff"
     bordercolor="#000000"
     borderopacity="0.25"
     inkscape:showpageshadow="2"
     inkscape:pageopacity="0.0"
     inkscape:pagecheckerboard="0"
     inkscape:deskcolor="#d1d1d1"
     inkscape:document-units="pt"
     inkscape:zoom="0.47753906"
     inkscape:cx="703.60736"
     inkscape:cy="853.33333"
     inkscape:window-width="1920"
     inkscape:window-height="1017"
     inkscape:window-x="-8"
     inkscape:window-y="-8"
     inkscape:window-maximized="1"
     inkscape:current-layer="svg1" />
  <metadata
     id="metadata1">
Created by potrace 1.15, written by Peter Selinger 2001-2017
</metadata>
  <g
     transform="matrix(0.06251945,0,0,-0.06251945,170.0767,900.00003)"
     fill="#000000"
     stroke="none"
     id="g1">
    <path
       d="m 3470,12709 -475,-90 -43,-47 c -137,-148 -366,-459 -519,-702 -174,-279 -406,-729 -544,-1057 -35,-84 -67,-153 -70,-153 -3,0 -16,57 -29,127 -117,647 -375,1308 -687,1758 l -48,70 -523,3 c -315,1 -522,-1 -522,-7 0,-5 31,-58 69,-118 350,-552 579,-1164 681,-1823 58,-375 54,-75 57,-4217 l 3,-3793 h 500 500 v 3125 3124 l 55,173 c 169,537 416,1123 660,1563 249,450 483,794 821,1203 l 20,25 31,-54 c 214,-382 348,-1027 393,-1889 6,-124 10,-1486 10,-3732 V 2660 h 505 505 v 3006 3005 l 31,122 c 268,1067 703,2030 1228,2717 84,109 293,359 302,360 9,0 134,-267 167,-360 142,-395 224,-864 252,-1450 6,-137 10,-1385 10,-3431 0,-2011 4,-3292 10,-3420 13,-257 33,-480 67,-728 l 26,-193 -24,-19 c -36,-27 -398,-210 -519,-262 -438,-189 -878,-325 -1465,-455 l -80,-18 -3,-428 -2,-428 27,6 c 16,3 93,17 173,32 469,84 926,207 1319,354 222,83 349,139 566,249 105,53 194,96 198,96 5,0 28,-49 51,-110 177,-461 412,-906 643,-1217 l 65,-88 h 585 c 467,0 583,3 576,13 -410,517 -654,904 -826,1307 -81,191 -162,465 -182,615 l -6,50 163,147 c 207,186 617,600 775,785 964,1123 1462,2265 1584,3633 17,191 18,792 1,975 -95,1038 -401,1942 -969,2862 l -75,121 -92,-33 c -50,-18 -236,-87 -412,-151 l -321,-118 -75,-116 C 8345,9718 8107,9223 7887,8633 l -72,-192 -6,1092 c -5,1041 -6,1100 -27,1266 -89,710 -310,1302 -705,1886 -52,77 -80,110 -93,109 -10,0 -228,-40 -484,-89 l -466,-88 -109,-135 c -375,-460 -696,-972 -906,-1447 -67,-153 -176,-436 -185,-485 -4,-16 -10,-30 -13,-30 -4,0 -13,46 -20,103 -17,140 -64,392 -106,571 -134,575 -358,1095 -643,1491 -44,61 -85,111 -93,111 -8,1 -228,-38 -489,-87 z M 9066,9233 c 106,-233 229,-579 304,-858 191,-711 231,-1505 114,-2260 C 9309,4984 8782,3945 7926,3043 l -116,-123 v 1979 1978 l 74,219 c 243,720 529,1328 859,1824 64,97 278,390 285,390 1,0 18,-35 38,-77 z"
       id="path1" />
  </g>
</svg>
